<?xml version="1.0" encoding="UTF-8"?>
<svg version="1.1" xmlns="http://www.w3.org/2000/svg" width="500" height="500">
<path d="M0 0 C15.82951658 -0.03342369 31.65901639 -0.05881655 47.48856354 -0.07163811 C51.97038079 -0.07534876 56.45218633 -0.08120464 60.93399811 -0.08910179 C100.02964256 -0.1544675 100.02964256 -0.1544675 118.61460114 0.37658501 C120.37575005 0.42000495 120.37575005 0.42000495 122.17247772 0.46430206 C140.18580818 1.09363674 154.74697499 7.99023355 167.25913239 21.00793266 C178.69613446 34.75903633 182.98627736 50.7882087 182.08335114 68.44543266 C180.65628653 80.20790454 175.97558826 91.03247609 168.25913239 100.00793266 C167.81053864 100.59832329 167.36194489 101.18871391 166.89975739 101.79699516 C157.68977129 113.54231451 143.54126012 119.30033226 129.25913239 122.00793266 C124.1562346 122.51789787 119.08785578 122.55135627 113.96518707 122.51586723 C112.48624689 122.52048943 111.00731133 122.52685111 109.52838516 122.53477621 C105.50934307 122.55131197 101.49068603 122.54329599 97.47164345 122.53083134 C93.11981613 122.52171783 88.76805143 122.53578156 84.41623688 122.54675102 C75.9087833 122.56447407 67.40147143 122.56072409 58.89401245 122.54910046 C51.97562758 122.54004184 45.05728223 122.53885261 38.13889313 122.54319572 C37.151677 122.54380866 36.16446086 122.54442159 35.14732909 122.54505309 C33.14139206 122.54633208 31.13545504 122.54762894 29.12951803 122.54894346 C10.34987416 122.56033106 -8.42969142 122.54726418 -27.20932245 122.52574199 C-43.29930377 122.50787268 -59.38916963 122.5109773 -75.47914886 122.52941704 C-94.19471764 122.55085597 -112.91021793 122.55923259 -131.62579727 122.54696798 C-133.62407429 122.54569388 -135.62235132 122.54443639 -137.62062836 122.54319572 C-138.60364434 122.54257862 -139.58666031 122.54196152 -140.59946465 122.54132572 C-147.50407836 122.53788188 -154.40864837 122.54368026 -161.31325531 122.55311394 C-169.73550223 122.56436895 -178.15760017 122.56122057 -186.57983017 122.53999096 C-190.87139071 122.52952748 -195.16270345 122.52527774 -199.45426178 122.53858757 C-203.39232047 122.55061573 -207.32990458 122.54377996 -211.26792097 122.52267736 C-212.68293403 122.51825496 -214.09798824 122.52037771 -215.51297426 122.53018051 C-233.62457147 122.64590684 -249.14023008 117.95133956 -262.45961761 105.28527641 C-263.21243011 104.53375298 -263.96524261 103.78222954 -264.74086761 103.00793266 C-265.39055511 102.36984673 -266.04024261 101.73176079 -266.70961761 101.07433891 C-277.90610358 89.26401052 -281.25127726 74.60743212 -281.16274261 58.85241508 C-280.7061772 42.02707857 -273.44451264 28.77211379 -261.74086761 17.00793266 C-261.13758636 16.36984673 -260.53430511 15.73176079 -259.91274261 15.07433891 C-255.84898284 11.107756 -251.38636973 8.61215881 -246.30336761 6.19543266 C-245.39046967 5.76001152 -245.39046967 5.76001152 -244.45912933 5.31579399 C-236.78282831 1.86278309 -229.15115981 0.7087491 -220.78530121 0.72945976 C-219.92881296 0.72366736 -219.07232471 0.71787496 -218.18988228 0.71190703 C-215.33965085 0.69500504 -212.48958249 0.69203783 -209.63930511 0.68908501 C-207.58176536 0.67977287 -205.52422934 0.66960231 -203.46669769 0.65864372 C-197.86119371 0.63128933 -192.2557151 0.61614737 -186.65016174 0.60321569 C-180.66946455 0.58740128 -174.68881542 0.5606104 -168.70815277 0.53518486 C-158.56282294 0.49357966 -148.4174899 0.45918982 -138.27211761 0.42980766 C-124.37356525 0.38954251 -110.47508649 0.33647199 -96.57658958 0.28055143 C-64.38446467 0.1521006 -32.1923018 0.06826509 0 0 Z M47.25913239 48.00793266 C42.28392722 54.55425525 41.49876847 59.96350288 42.25913239 68.00793266 C44.06166131 74.73584317 48.40562936 78.54593866 54.25913239 82.00793266 C61.69783572 85.41733836 68.17946317 84.36132549 75.57163239 81.66418266 C76.12850739 81.44762016 76.68538239 81.23105766 77.25913239 81.00793266 C76.10327954 77.09581533 74.90378276 74.13342857 72.25913239 71.00793266 C71.59913239 71.33793266 70.93913239 71.66793266 70.25913239 72.00793266 C66.07769227 72.40240815 63.94967191 72.45828452 60.38413239 70.13293266 C57.65868347 67.40748375 57.3124337 66.57292657 56.94663239 62.69543266 C57.31797436 58.31359742 57.91744492 56.848367 61.25913239 54.00793266 C65.46395178 52.76716628 69.06196566 52.79000482 73.25913239 54.00793266 C73.93068171 52.71879779 74.59622097 51.42653062 75.25913239 50.13293266 C75.63038239 49.41363579 76.00163239 48.69433891 76.38413239 47.95324516 C77.39586985 46.05944289 77.39586985 46.05944289 77.25913239 44.00793266 C67.15516611 39.11891672 55.48326959 40.18966197 47.25913239 48.00793266 Z M87.95053864 47.35949516 C83.28603272 51.90550324 81.49396039 55.95516864 81.00913239 62.25793266 C81.40065101 68.13071208 82.82347509 72.35140502 86.69663239 76.82043266 C87.54225739 77.54230766 88.38788239 78.26418266 89.25913239 79.00793266 C89.85725739 79.56480766 90.45538239 80.12168266 91.07163239 80.69543266 C97.44199915 84.51765272 105.42400594 84.97495795 112.58335114 83.54308891 C119.40396602 81.58607038 124.00694513 78.05928313 128.19663239 72.38293266 C130.13395595 66.22908134 130.1231604 59.87002546 128.25913239 53.69543266 C123.18339637 46.87491239 117.48846115 42.58225887 109.07163239 41.25793266 C100.91410677 40.53974519 94.29989275 42.10043418 87.95053864 47.35949516 Z M139.25913239 69.00793266 C137.41284463 73.08515146 136.93353276 75.04922265 138.38413239 79.32043266 C140.66606177 82.64683369 140.66606177 82.64683369 144.25913239 84.00793266 C147.61601659 83.83125455 150.22331146 83.62942522 153.13413239 81.88293266 C154.90896906 78.92487154 155.1411324 76.42993221 155.25913239 73.00793266 C153.91462841 69.64667273 152.96832801 68.38026036 149.75913239 66.69543266 C145.22967127 65.44983085 142.89744927 66.11593719 139.25913239 69.00793266 Z " fill="#000001" transform="translate(298.7408676147461,188.99206733703613)"/>
<path d="M0 0 C2.16714456 1.33516033 2.7543345 2.7254335 3.69921875 5.046875 C4.25351562 4.62535156 4.8078125 4.20382813 5.37890625 3.76953125 C6.10335937 3.22167969 6.8278125 2.67382812 7.57421875 2.109375 C8.29351562 1.56410156 9.0128125 1.01882812 9.75390625 0.45703125 C13.92655101 -2.56771726 17.67963685 -2.41099227 22.69921875 -1.953125 C27.61841615 -0.2503259 31.02437587 2.58027544 33.69921875 7.046875 C34.13122117 9.87077725 34.2919498 12.05532424 34.1875 14.8515625 C34.18042526 15.5755423 34.17335052 16.29952209 34.1660614 17.04544067 C34.13825984 19.33867476 34.0755595 21.62938987 34.01171875 23.921875 C33.98661697 25.48433952 33.96380709 27.04684264 33.94335938 28.609375 C33.88848149 32.42283305 33.80231787 36.23442826 33.69921875 40.046875 C29.07921875 40.046875 24.45921875 40.046875 19.69921875 40.046875 C19.6734375 38.13261719 19.64765625 36.21835937 19.62109375 34.24609375 C19.56482567 31.74216429 19.50747806 29.23825892 19.44921875 26.734375 C19.43503906 25.47173828 19.42085938 24.20910156 19.40625 22.90820312 C19.37402344 21.69970703 19.34179688 20.49121094 19.30859375 19.24609375 C19.28764648 18.13065186 19.26669922 17.01520996 19.24511719 15.8659668 C18.94835985 12.95814036 18.94835985 12.95814036 16.86035156 11.14770508 C13.81589405 9.59693023 11.91674814 10.11736651 8.69921875 11.046875 C7.33082512 13.78366225 7.48287057 16.08951924 7.3828125 19.1484375 C7.3199707 20.96601563 7.3199707 20.96601563 7.25585938 22.8203125 C7.21654297 24.09132813 7.17722656 25.36234375 7.13671875 26.671875 C7.07194336 28.59 7.07194336 28.59 7.00585938 30.546875 C6.89952065 33.71340582 6.79884205 36.88012579 6.69921875 40.046875 C1.74921875 40.046875 -3.20078125 40.046875 -8.30078125 40.046875 C-8.36136719 38.13261719 -8.42195313 36.21835937 -8.484375 34.24609375 C-8.5687766 31.74217961 -8.65342479 29.23827377 -8.73828125 26.734375 C-8.77759766 25.47173828 -8.81691406 24.20910156 -8.85742188 22.90820312 C-8.89931641 21.69970703 -8.94121094 20.49121094 -8.984375 19.24609375 C-9.02103271 18.13065186 -9.05769043 17.01520996 -9.09545898 15.8659668 C-9.19009334 12.96813929 -9.19009334 12.96813929 -10.30078125 10.046875 C-14.87189377 9.605806 -14.87189377 9.605806 -18.99926758 11.17114258 C-20.86752566 13.86366309 -20.73605436 15.98950945 -20.8125 19.24609375 C-20.84794922 20.45458984 -20.88339844 21.66308594 -20.91992188 22.90820312 C-20.95375977 24.8021582 -20.95375977 24.8021582 -20.98828125 26.734375 C-21.02244141 28.00861328 -21.05660156 29.28285156 -21.09179688 30.59570312 C-21.1743832 33.74578143 -21.23925516 36.89631499 -21.30078125 40.046875 C-25.92078125 40.046875 -30.54078125 40.046875 -35.30078125 40.046875 C-35.30078125 26.516875 -35.30078125 12.986875 -35.30078125 -0.953125 C-30.68078125 -0.953125 -26.06078125 -0.953125 -21.30078125 -0.953125 C-20.97078125 0.036875 -20.64078125 1.026875 -20.30078125 2.046875 C-19.70265625 1.5725 -19.10453125 1.098125 -18.48828125 0.609375 C-12.62078309 -3.58169512 -6.35575428 -2.24761448 0 0 Z " fill="#4898CE" transform="translate(275.30078125,231.953125)"/>
<path d="M0 0 C1.9140625 1.1015625 1.9140625 1.1015625 4.7265625 3.1015625 C5.0565625 2.1115625 5.3865625 1.1215625 5.7265625 0.1015625 C10.3465625 0.1015625 14.9665625 0.1015625 19.7265625 0.1015625 C19.7265625 13.6315625 19.7265625 27.1615625 19.7265625 41.1015625 C15.1065625 41.1015625 10.4865625 41.1015625 5.7265625 41.1015625 C5.7265625 39.7815625 5.7265625 38.4615625 5.7265625 37.1015625 C4.7984375 37.7409375 3.8703125 38.3803125 2.9140625 39.0390625 C-2.61783688 42.6185268 -7.82726725 42.99662486 -14.2734375 42.1015625 C-20.72839158 39.36724005 -24.46413776 35.42248691 -27.2734375 29.1015625 C-29.07106675 23.109465 -29.30696438 16.62051113 -26.7109375 10.8515625 C-21.29075604 1.32284492 -10.71184598 -4.23320374 0 0 Z " fill="#3FB1FA" transform="translate(210.2734375,230.8984375)"/>
<path d="M0 0 C4.28191056 3.40606522 7.43596826 7.73122268 9 13 C9 15.64 9 18.28 9 21 C-0.9 21 -10.8 21 -21 21 C-17.86824314 26.77260299 -17.86824314 26.77260299 -15 28 C-9.51994821 28.35355173 -7.3203043 28.42644824 -3 25 C1.13128135 25.21743586 4.39553987 27.07203296 8 29 C5.39315804 33.93927951 2.46531422 36.7974077 -2.5625 39.25 C-9.5982366 40.7850698 -17.4677364 41.1240091 -24.18359375 38.1796875 C-29.37686042 34.80685624 -33.1258265 29.86889073 -35 24 C-35.91063912 17.05038566 -35.65648555 11.34774516 -31.41796875 5.61328125 C-23.21021522 -3.72501684 -10.95340133 -6.07705487 0 0 Z " fill="#42B0F6" transform="translate(76,233)"/>
<path d="M0 0 C4.74157328 1.90440238 7.88379572 3.80237899 10.6328125 8.26953125 C11.79208778 11.74735708 11.74594316 14.45756382 11.73046875 18.125 C11.7290538 18.78663651 11.72763885 19.44827301 11.72618103 20.12995911 C11.72059246 22.23902953 11.70804215 24.34799302 11.6953125 26.45703125 C11.69029602 27.88867034 11.68573337 29.3203111 11.68164062 30.75195312 C11.6714785 34.25788664 11.65190111 37.76358952 11.6328125 41.26953125 C7.0128125 41.26953125 2.3928125 41.26953125 -2.3671875 41.26953125 C-2.44066406 38.63210938 -2.44066406 38.63210938 -2.515625 35.94140625 C-2.59065939 33.63409871 -2.66620693 31.32680782 -2.7421875 29.01953125 C-2.773125 27.86066406 -2.8040625 26.70179688 -2.8359375 25.5078125 C-2.87460938 24.39277344 -2.91328125 23.27773437 -2.953125 22.12890625 C-2.9845459 21.10249023 -3.0159668 20.07607422 -3.04833984 19.01855469 C-3.37001832 16.24512467 -3.77555211 14.55532759 -5.3671875 12.26953125 C-8.69135305 11.09191384 -8.69135305 11.09191384 -12.3671875 11.26953125 C-15.16272887 12.80047499 -15.16272887 12.80047499 -17.3671875 15.26953125 C-18.14147665 18.14997957 -18.14147665 18.14997957 -18.07421875 21.34765625 C-18.10322266 22.5078125 -18.13222656 23.66796875 -18.16210938 24.86328125 C-18.16791016 26.06984375 -18.17371094 27.27640625 -18.1796875 28.51953125 C-18.20482422 29.7415625 -18.22996094 30.96359375 -18.25585938 32.22265625 C-18.31475153 35.23793451 -18.34382596 38.25376841 -18.3671875 41.26953125 C-22.9871875 41.26953125 -27.6071875 41.26953125 -32.3671875 41.26953125 C-32.3671875 27.73953125 -32.3671875 14.20953125 -32.3671875 0.26953125 C-27.7471875 0.26953125 -23.1271875 0.26953125 -18.3671875 0.26953125 C-18.0371875 1.25953125 -17.7071875 2.24953125 -17.3671875 3.26953125 C-16.3771875 2.60953125 -15.3871875 1.94953125 -14.3671875 1.26953125 C-9.50371805 -1.46494957 -5.24649012 -1.61896642 0 0 Z " fill="#3EB2FA" transform="translate(124.3671875,230.73046875)"/>
<path d="M0 0 C-0.99 2.97 -1.98 5.94 -3 9 C-3.66 8.835 -4.32 8.67 -5 8.5 C-8.73099794 7.87816701 -12.21873378 7.93591074 -16 8 C-16 8.99 -16 9.98 -16 11 C-14.78763672 11.43699219 -14.78763672 11.43699219 -13.55078125 11.8828125 C-2.07800257 16.28370951 -2.07800257 16.28370951 1 22 C1.91430787 26.66380893 1.4265622 30.04023505 -0.5 34.375 C-5.29372591 39.4084122 -10.32270061 40.17265759 -17 40.375 C-23.11539172 40.22792096 -27.54686616 38.72656692 -33 36 C-32.46884894 31.48521602 -30.63379708 28.65333143 -28 25 C-26.453125 25.99 -26.453125 25.99 -24.875 27 C-21.46423174 28.97282726 -18.9798357 29.38827665 -15 29 C-15 27.68 -15 26.36 -15 25 C-16.24716797 24.40251953 -16.24716797 24.40251953 -17.51953125 23.79296875 C-18.60621094 23.26316406 -19.69289062 22.73335937 -20.8125 22.1875 C-21.89144531 21.66542969 -22.97039062 21.14335937 -24.08203125 20.60546875 C-29.52310456 17.61178584 -29.52310456 17.61178584 -30.6171875 13.9140625 C-31.03048976 10.24443944 -31.25964087 7.68728466 -29.9375 4.1875 C-21.75760961 -5.04786012 -10.52123398 -4.76433237 0 0 Z " fill="#40AEF4" transform="translate(176,233)"/>
<path d="M0 0 C7.06487954 0.4513673 11.93501088 2.1218491 17.8125 6.0546875 C17.5959375 6.67730469 17.379375 7.29992187 17.15625 7.94140625 C14.05551367 18.23412825 14.54320845 28.40271051 14.8125 39.0546875 C11.1825 39.0546875 7.5525 39.0546875 3.8125 39.0546875 C3.80839111 38.25772461 3.80428223 37.46076172 3.80004883 36.63964844 C3.76714655 33.02724127 3.69650344 29.41652811 3.625 25.8046875 C3.61919922 24.55042969 3.61339844 23.29617187 3.60742188 22.00390625 C3.57841797 20.79863281 3.54941406 19.59335938 3.51953125 18.3515625 C3.5038208 17.24135742 3.48811035 16.13115234 3.47192383 14.98730469 C3.04492351 11.87109899 3.04492351 11.87109899 0.4753418 9.70800781 C-2.47834351 7.87410693 -4.74974512 7.37447865 -8.1875 7.0546875 C-8.1875 7.7146875 -8.1875 8.3746875 -8.1875 9.0546875 C-8.950625 9.1371875 -9.71375 9.2196875 -10.5 9.3046875 C-13.71123261 10.20084544 -14.48124499 11.27079775 -16.1875 14.0546875 C-15.1975 14.3846875 -14.2075 14.7146875 -13.1875 15.0546875 C-13.1875 22.9746875 -13.1875 30.8946875 -13.1875 39.0546875 C-16.8175 39.0546875 -20.4475 39.0546875 -24.1875 39.0546875 C-24.1875 26.5146875 -24.1875 13.9746875 -24.1875 1.0546875 C-15.1875 1.0546875 -15.1875 1.0546875 -12.1875 2.0546875 C-12.1875 2.7146875 -12.1875 3.3746875 -12.1875 4.0546875 C-10.70715236 3.57918189 -9.22824979 3.09917534 -7.75 2.6171875 C-6.92628906 2.35035156 -6.10257812 2.08351562 -5.25390625 1.80859375 C-0.31849708 0.00796243 -0.31849708 0.00796243 0 0 Z " fill="#3EB2FB" transform="translate(265.1875,231.9453125)"/>
<path d="M0 0 C1.9140625 1.1015625 1.9140625 1.1015625 4.7265625 3.1015625 C4.7265625 4.0915625 4.7265625 5.0815625 4.7265625 6.1015625 C4.08847656 6.22273437 3.45039063 6.34390625 2.79296875 6.46875 C1.96667969 6.63632813 1.14039063 6.80390625 0.2890625 6.9765625 C-0.94650391 7.22019531 -0.94650391 7.22019531 -2.20703125 7.46875 C-2.88894531 7.67757812 -3.57085937 7.88640625 -4.2734375 8.1015625 C-4.6034375 8.7615625 -4.9334375 9.4215625 -5.2734375 10.1015625 C-4.2009375 10.0190625 -3.1284375 9.9365625 -2.0234375 9.8515625 C1.7265625 10.1015625 1.7265625 10.1015625 4.1640625 11.4765625 C6.59135347 15.55441133 6.48940816 19.47961524 5.7265625 24.1015625 C3.93009396 27.03579445 2.7824554 28.57361605 -0.2734375 30.1015625 C-9.46439227 30.39804491 -9.46439227 30.39804491 -12.2734375 29.1015625 C-15.34134174 24.12034163 -14.68550011 18.62544597 -13.7734375 13.0390625 C-13.6084375 12.3996875 -13.4434375 11.7603125 -13.2734375 11.1015625 C-12.6134375 11.1015625 -11.9534375 11.1015625 -11.2734375 11.1015625 C-10.9434375 9.4515625 -10.6134375 7.8015625 -10.2734375 6.1015625 C-10.9334375 5.7715625 -11.5934375 5.4415625 -12.2734375 5.1015625 C-12.2734375 4.4415625 -12.2734375 3.7815625 -12.2734375 3.1015625 C-16.60573465 3.9619764 -16.60573465 3.9619764 -20.2734375 6.1015625 C-18.9534375 6.7615625 -17.6334375 7.4215625 -16.2734375 8.1015625 C-19.2734375 9.1015625 -19.2734375 9.1015625 -22.2734375 9.1015625 C-25.61842244 14.39778866 -25.81723021 19.02572467 -25.2734375 25.1015625 C-24.9434375 26.0915625 -24.6134375 27.0815625 -24.2734375 28.1015625 C-23.6134375 27.7715625 -22.9534375 27.4415625 -22.2734375 27.1015625 C-22.2321875 28.3596875 -22.1909375 29.6178125 -22.1484375 30.9140625 C-21.96579261 33.11145776 -21.96579261 33.11145776 -21.2734375 35.1015625 C-18.35501893 37.18788947 -18.35501893 37.18788947 -15.2734375 38.1015625 C-15.2734375 38.7615625 -15.2734375 39.4215625 -15.2734375 40.1015625 C-13.02315421 39.96016769 -10.77321544 39.81328247 -8.5234375 39.6640625 C-7.27046875 39.58285156 -6.0175 39.50164062 -4.7265625 39.41796875 C-2.09026197 39.17640728 0.20693544 38.85872316 2.7265625 38.1015625 C-0.58234297 41.72560183 -3.59254248 42.31314436 -8.3984375 42.5390625 C-14.71271546 42.47215624 -18.72955345 40.41872468 -23.2734375 36.1015625 C-28.16949448 29.79500712 -29.09137814 22.86031373 -28.2734375 15.1015625 C-26.2337361 8.12234326 -21.48084538 3.6451714 -15.38671875 -0.0390625 C-10.66916485 -1.95747629 -4.71720222 -1.86418644 0 0 Z " fill="#48A8E5" transform="translate(210.2734375,230.8984375)"/>
<path d="M0 0 C4.95 0 9.9 0 15 0 C15 13.53 15 27.06 15 41 C10.05 41 5.1 41 0 41 C0 27.47 0 13.94 0 0 Z " fill="#3FB1FB" transform="translate(318,231)"/>
<path d="M0 0 C0 0.66 0 1.32 0 2 C0.99 2.33 1.98 2.66 3 3 C2.34 4.65 1.68 6.3 1 8 C0.34 8 -0.32 8 -1 8 C-1.10853983 10.22808159 -1.18583307 12.45769932 -1.25 14.6875 C-1.31960937 16.54955078 -1.31960937 16.54955078 -1.390625 18.44921875 C-0.93041494 22.6325282 -0.12766441 24.21229911 3 27 C5.73296523 27.70188057 5.73296523 27.70188057 8.625 27.625 C11.5390625 27.6640625 11.5390625 27.6640625 14 28 C16 31 16 31 16 35 C11.78103134 37.04898287 8.34627854 37.21207997 3.6875 37.125 C1.80611328 37.09792969 1.80611328 37.09792969 -0.11328125 37.0703125 C-1.54220703 37.03550781 -1.54220703 37.03550781 -3 37 C-3 36.34 -3 35.68 -3 35 C-3.8971875 34.814375 -3.8971875 34.814375 -4.8125 34.625 C-7.81083079 33.76833406 -9.6003723 32.69500469 -11.16796875 29.96875 C-13.87916046 23.40371873 -15.94614659 16.68920665 -13.09375 9.81640625 C-12 7.875 -12 7.875 -10 5 C-8.35 5 -6.7 5 -5 5 C-6.32 4.34 -7.64 3.68 -9 3 C-6.38997624 -0.48003168 -4.1689578 -0.27793052 0 0 Z " fill="#3EB1FA" transform="translate(198,234)"/>
<path d="M0 0 C3.42963385 0.74828375 5.27125029 1.19018032 7.61743164 3.79736328 C11.70674417 10.31224544 10.12389401 20.70104703 10.0625 28.125 C10.05798828 29.176875 10.05347656 30.22875 10.04882812 31.3125 C10.03718028 33.87502522 10.01925068 36.43752062 10 39 C6.37 39 2.74 39 -1 39 C-1.06058594 37.40929687 -1.12117188 35.81859375 -1.18359375 34.1796875 C-1.26803185 32.07811706 -1.3526782 29.97655499 -1.4375 27.875 C-1.47681641 26.82828125 -1.51613281 25.7815625 -1.55664062 24.703125 C-1.69620823 17.26603118 -1.69620823 17.26603118 -3 10 C-4.57405438 8.65838942 -4.57405438 8.65838942 -6.5625 8.125 C-7.696875 7.75375 -8.83125 7.3825 -10 7 C-10 6.34 -10 5.68 -10 5 C-10.99 5.33 -11.98 5.66 -13 6 C-13 4.68 -13 3.36 -13 2 C-8.72535616 -0.84976256 -5.01195249 -0.37472542 0 0 Z " fill="#3DB2FB" transform="translate(298,232)"/>
<path d="M0 0 C3.3 0 6.6 0 10 0 C10.33 0.99 10.66 1.98 11 3 C12.65 3 14.3 3 16 3 C15.1875 5.9375 15.1875 5.9375 14 9 C13.01 9.33 12.02 9.66 11 10 C11.33 10.99 11.66 11.98 12 13 C12.01583723 14.92093176 11.96657609 16.84272328 11.87890625 18.76171875 C11.83056641 19.87998047 11.78222656 20.99824219 11.73242188 22.15039062 C11.67634766 23.31763672 11.62027344 24.48488281 11.5625 25.6875 C11.51029297 26.86634766 11.45808594 28.04519531 11.40429688 29.25976562 C11.27453968 32.17340444 11.13791854 35.0867361 11 38 C7.04 38 3.08 38 -1 38 C-1.0269135 34.22911927 -1.04679714 30.45842968 -1.0625 26.6875 C-1.07087891 25.61564453 -1.07925781 24.54378906 -1.08789062 23.43945312 C-1.09111328 22.41142578 -1.09433594 21.38339844 -1.09765625 20.32421875 C-1.10289307 19.37635498 -1.10812988 18.42849121 -1.11352539 17.4519043 C-1 15 -1 15 0 12 C0.165 10.824375 0.33 9.64875 0.5 8.4375 C1 5 1 5 2 3 C1.34 3 0.68 3 0 3 C0 2.01 0 1.02 0 0 Z " fill="#3DB2FB" transform="translate(94,233)"/>
<path d="M0 0 C1.36125 0.309375 1.36125 0.309375 2.75 0.625 C5.49754574 2.30405573 5.54846425 3.09022862 6.3125 6.125 C6.6528125 8.043125 6.6528125 8.043125 7 10 C7.99 10 8.98 10 10 10 C10.061875 9.071875 10.12375 8.14375 10.1875 7.1875 C11 4 11 4 13.25 2.125 C16.08997232 0.96319314 17.96765104 0.74008438 21 1 C20.278125 1.53625 19.55625 2.0725 18.8125 2.625 C14.42448506 6.33043484 10.42061529 10.31753884 9 16 C8.48141756 22.36642695 9.1916811 27.89692372 11 34 C7.535 34.495 7.535 34.495 4 35 C3.67 36.32 3.34 37.64 3 39 C1.02 39.495 1.02 39.495 -1 40 C-0.505 39.195625 -0.01 38.39125 0.5 37.5625 C2.28257929 33.32887419 3.00112587 29.53265651 2 25 C-1.42362172 19.53850822 -5.55856414 18.35619705 -11.41796875 16.30859375 C-14 15 -14 15 -14.92578125 12.91015625 C-14.95027344 12.27980469 -14.97476563 11.64945313 -15 11 C-14 10 -14 10 -10.25 9.8125 C-6.76415714 9.84384751 -4.15520917 10.42239542 -1 12 C-0.855625 11.2575 -0.71125 10.515 -0.5625 9.75 C-0.09812508 7.47972261 0.41863569 5.24240521 1 3 C-6.83243817 0.2151331 -15.23456787 -0.35802471 -23 3 C-22.67 2.01 -22.34 1.02 -22 0 C-18.81354987 -1.06215004 -16.03069311 -1.39058435 -12.6875 -1.6875 C-11.57761719 -1.79449219 -10.46773437 -1.90148437 -9.32421875 -2.01171875 C-5.7747498 -1.99920593 -3.29328554 -1.26592962 0 0 Z " fill="#020810" transform="translate(174,230)"/>
<path d="M0 0 C2.8100346 1.79363911 4.50940468 3.01880935 6 6 C6.48934939 10.24102801 6.42023316 12.99066919 3.8125 16.375 C-0.16915423 20.09121061 -0.16915423 20.09121061 -4 20 C-8.22163177 18.76262517 -10.40505016 17.79326645 -13.0625 14.25 C-14.27254937 10.05516218 -13.69850539 7.98779526 -12 4 C-8.97421971 -0.53867044 -5.14796728 -1.04185052 0 0 Z " fill="#050405" transform="translate(408,242)"/>
<path d="M0 0 C1.67542976 0.28604898 3.34385343 0.61781233 5 1 C5 1.66 5 2.32 5 3 C6.74965358 3.05429959 8.49979787 3.09292823 10.25 3.125 C11.22453125 3.14820313 12.1990625 3.17140625 13.203125 3.1953125 C16.0532032 2.99628469 17.5146039 2.29132537 20 1 C24.13444016 2.55041506 26.22681712 5.1469394 28.28515625 9.015625 C29.50760678 12.40909422 29.25072661 15.42714577 29 19 C27.2507786 19.08142927 25.50045458 19.13938541 23.75 19.1875 C22.77546875 19.22230469 21.8009375 19.25710937 20.796875 19.29296875 C17.62531258 18.96075202 16.32959693 18.11327721 14 16 C14.66 15.34 15.32 14.68 16 14 C15.72965366 11.56282742 15.72965366 11.56282742 15 9 C14.67 7.68 14.34 6.36 14 5 C9.71 5 5.42 5 1 5 C1 6.65 1 8.3 1 10 C0.01 10.33 -0.98 10.66 -2 11 C-2 10.34 -2 9.68 -2 9 C-3.98 9 -5.96 9 -8 9 C-7.875 6.6875 -7.875 6.6875 -7 4 C-4 2.25 -4 2.25 -1 1 C-0.67 0.67 -0.34 0.34 0 0 Z " fill="#3EB1F9" transform="translate(54,233)"/>
<path d="M0 0 C3.28870485 2.72721866 3.89723897 4.28067282 4.5 8.5 C3.9231981 12.53761333 2.85349783 14.14650217 0 17 C-3.24669341 18.62334671 -6.50286478 18.69541503 -10 18 C-13.57242969 14.94854964 -14.82856498 13.08575513 -15.5625 8.4375 C-14.91429589 4.47625263 -13.81200626 2.81200626 -11 0 C-7.48760215 -1.75619893 -3.71422336 -0.94999674 0 0 Z " fill="#020105" transform="translate(212,243)"/>
<path d="M0 0 C2.20394007 0.96724643 4.35588985 1.98604011 6.4921875 3.09375 C2.72594079 4.34916557 1.12029816 3.46436958 -2.5078125 2.09375 C-2.8378125 3.08375 -3.1678125 4.07375 -3.5078125 5.09375 C-6.5703125 6.28125 -6.5703125 6.28125 -9.5078125 7.09375 C-8.5178125 7.42375 -7.5278125 7.75375 -6.5078125 8.09375 C-6.5078125 8.75375 -6.5078125 9.41375 -6.5078125 10.09375 C-5.1878125 10.75375 -3.8678125 11.41375 -2.5078125 12.09375 C-2.8378125 13.41375 -3.1678125 14.73375 -3.5078125 16.09375 C-3.6934375 15.454375 -3.8790625 14.815 -4.0703125 14.15625 C-5.43643681 11.74172689 -5.43643681 11.74172689 -8.8203125 11.09375 C-12.50437087 10.77634751 -12.50437087 10.77634751 -15.1940918 12.71386719 C-18.08700685 15.68950673 -18.1546272 17.07714945 -18.21484375 21.171875 C-18.24384766 22.33203125 -18.27285156 23.4921875 -18.30273438 24.6875 C-18.30853516 25.8940625 -18.31433594 27.100625 -18.3203125 28.34375 C-18.34544922 29.56578125 -18.37058594 30.7878125 -18.39648438 32.046875 C-18.45537653 35.06215326 -18.48445096 38.07798716 -18.5078125 41.09375 C-23.1278125 41.09375 -27.7478125 41.09375 -32.5078125 41.09375 C-32.5078125 27.56375 -32.5078125 14.03375 -32.5078125 0.09375 C-27.8878125 0.09375 -23.2678125 0.09375 -18.5078125 0.09375 C-18.1778125 1.08375 -17.8478125 2.07375 -17.5078125 3.09375 C-16.5178125 2.43375 -15.5278125 1.77375 -14.5078125 1.09375 C-9.58448698 -1.67438483 -5.24883269 -1.89677443 0 0 Z M-30.5078125 2.09375 C-30.5078125 3.08375 -30.5078125 4.07375 -30.5078125 5.09375 C-29.8478125 5.09375 -29.1878125 5.09375 -28.5078125 5.09375 C-28.8378125 5.609375 -29.1678125 6.125 -29.5078125 6.65625 C-30.82329328 9.86273439 -30.5726135 12.65929703 -30.5078125 16.09375 C-30.8378125 16.42375 -31.1678125 16.75375 -31.5078125 17.09375 C-31.59495081 18.80147358 -31.61481257 20.51273649 -31.60546875 22.22265625 C-31.60224609 23.25712891 -31.59902344 24.29160156 -31.59570312 25.35742188 C-31.58313477 26.9903418 -31.58313477 26.9903418 -31.5703125 28.65625 C-31.56580078 29.74873047 -31.56128906 30.84121094 -31.55664062 31.96679688 C-31.5448109 34.67580432 -31.52687481 37.3847838 -31.5078125 40.09375 C-27.5478125 40.09375 -23.5878125 40.09375 -19.5078125 40.09375 C-19.34070021 35.63543295 -19.17410168 31.17709776 -19.0078125 26.71875 C-18.96011719 25.44773437 -18.91242188 24.17671875 -18.86328125 22.8671875 C-18.81816406 21.65546875 -18.77304688 20.44375 -18.7265625 19.1953125 C-18.68466797 18.07463379 -18.64277344 16.95395508 -18.59960938 15.79931641 C-18.54641164 14.23139805 -18.5078125 12.66257057 -18.5078125 11.09375 C-17.5178125 10.76375 -16.5278125 10.43375 -15.5078125 10.09375 C-15.1778125 8.44375 -14.8478125 6.79375 -14.5078125 5.09375 C-16.1578125 5.09375 -17.8078125 5.09375 -19.5078125 5.09375 C-19.8378125 4.10375 -20.1678125 3.11375 -20.5078125 2.09375 C-23.8078125 2.09375 -27.1078125 2.09375 -30.5078125 2.09375 Z M-14.5078125 3.09375 C-13.5078125 5.09375 -13.5078125 5.09375 -13.5078125 5.09375 Z " fill="#4EA7E2" transform="translate(124.5078125,230.90625)"/>
<path d="M0 0 C0.99 0 1.98 0 3 0 C3 0.66 3 1.32 3 2 C3.66 2 4.32 2 5 2 C6.23184766 4.46369532 6.16732342 6.1894501 6.1875 8.9375 C6.20167969 9.81277344 6.21585938 10.68804687 6.23046875 11.58984375 C6 14 6 14 4 17 C2.68 17 1.36 17 0 17 C0 17.99 0 18.98 0 20 C-5.94 20 -11.88 20 -18 20 C-17.34 18.35 -16.68 16.7 -16 15 C-16.99 15 -17.98 15 -19 15 C-19 15.99 -19 16.98 -19 18 C-19.99 17.67 -20.98 17.34 -22 17 C-22 15.35 -22 13.7 -22 12 C-19.33097585 11.01147254 -18.30286911 10.87247616 -15.625 12 C-12.2033345 13.30349162 -10.4618207 13.17849215 -7 12 C-4.20293091 8.58136 -2.52892627 5.11633995 -1 1 C-0.67 0.67 -0.34 0.34 0 0 Z " fill="#3EB2FB" transform="translate(169,251)"/>
<path d="M0 0 C4.9191974 1.7027991 8.32515712 4.53340044 11 9 C11.43200242 11.82390225 11.59273105 14.00844924 11.48828125 16.8046875 C11.48120651 17.5286673 11.47413177 18.25264709 11.46684265 18.99856567 C11.43904109 21.29179976 11.37634075 23.58251487 11.3125 25.875 C11.28739822 27.43746452 11.26458834 28.99996764 11.24414062 30.5625 C11.18926274 34.37595805 11.10309912 38.18755326 11 42 C6.38 42 1.76 42 -3 42 C-3.02578125 40.08574219 -3.0515625 38.17148437 -3.078125 36.19921875 C-3.13439308 33.69528929 -3.19174069 31.19138392 -3.25 28.6875 C-3.26417969 27.42486328 -3.27835937 26.16222656 -3.29296875 24.86132812 C-3.32519531 23.65283203 -3.35742188 22.44433594 -3.390625 21.19921875 C-3.41157227 20.08377686 -3.43251953 18.96833496 -3.45410156 17.8190918 C-3.75013857 14.91058263 -3.75013857 14.91058263 -5.84277344 13.10473633 C-8.91615784 11.53082682 -10.75462963 12.01227858 -14 13 C-16.25870108 16.38805161 -16.29259413 17.77350741 -16.4140625 21.76171875 C-16.45273437 22.87998047 -16.49140625 23.99824219 -16.53125 25.15039062 C-16.5621875 26.31763672 -16.593125 27.48488281 -16.625 28.6875 C-16.66367187 29.86634766 -16.70234375 31.04519531 -16.7421875 32.25976562 C-16.83654391 35.17301977 -16.92213161 38.08626607 -17 41 C-17.33 41 -17.66 41 -18 41 C-18.22859603 37.66773856 -18.42912468 34.3343321 -18.625 31 C-18.68945312 30.06542969 -18.75390625 29.13085938 -18.8203125 28.16796875 C-19.14929313 22.28743997 -18.7176728 17.63495538 -17 12 C-16.29444416 9.47140436 -16 7.6665499 -16 5 C-10.62590323 0.19159763 -7.04962307 -0.64303994 0 0 Z M-14 5 C-13.67 5.99 -13.34 6.98 -13 8 C-12.01 7.67 -11.02 7.34 -10 7 C-10 7.66 -10 8.32 -10 9 C-8.865625 9.37125 -7.73125 9.7425 -6.5625 10.125 C-4.62890625 10.7578125 -4.62890625 10.7578125 -3 12 C-1.35991519 17.66574754 -1.65798846 24.00494645 -1.4375 29.875 C-1.39431641 30.94492187 -1.35113281 32.01484375 -1.30664062 33.1171875 C-1.20107257 35.74465903 -1.10008205 38.37231378 -1 41 C2.63 41 6.26 41 10 41 C10.02723328 37.37494824 10.04695114 33.75010573 10.0625 30.125 C10.07087891 29.11179687 10.07925781 28.09859375 10.08789062 27.0546875 C10.79312607 14.70629717 10.79312607 14.70629717 6 4 C-0.42437673 0.86615769 -8.45660738 0.15911105 -14 5 Z " fill="#4FA3D9" transform="translate(298,230)"/>
<path d="M0 0 C0.33 0.66 0.66 1.32 1 2 C0.67 2.99 0.34 3.98 0 5 C1.98 5 3.96 5 6 5 C6 5.66 6 6.32 6 7 C6.66 6.67 7.32 6.34 8 6 C8.65555119 3.47266765 8.65555119 3.47266765 9 1 C11.10241603 0.86503749 13.2072961 0.76802693 15.3125 0.6875 C16.48425781 0.62949219 17.65601563 0.57148438 18.86328125 0.51171875 C22 1 22 1 23.91796875 3.33203125 C25 6 25 6 25 9 C23.87980469 9.06058594 22.75960937 9.12117187 21.60546875 9.18359375 C20.13280016 9.26801424 18.66014456 9.35266149 17.1875 9.4375 C16.44951172 9.47681641 15.71152344 9.51613281 14.95117188 9.55664062 C11.76928658 9.74381035 9.03837622 9.98720793 6 11 C4 10 4 10 2 7 C-1.24302846 8.68226879 -1.24302846 8.68226879 -1.72265625 11.7578125 C-2.57565038 19.69777792 -2.57565038 19.69777792 0.75 26.6875 C2.74171845 28.9451032 4.45767843 30.30511896 7 32 C6.67 32.66 6.34 33.32 6 34 C0.78093607 29.9214441 -3.26126303 26.62893468 -5 20 C-5.89282939 12.65444908 -5.52324032 7.38176177 -1.09375 1.328125 C-0.7328125 0.88984375 -0.371875 0.4515625 0 0 Z " fill="#49A9E8" transform="translate(46,237)"/>
<path d="M0 0 C0.66 0 1.32 0 2 0 C2.33 1.32 2.66 2.64 3 4 C3.99 4 4.98 4 6 4 C5.96744792 5.98567708 5.93489583 7.97135417 5.90234375 9.95703125 C5.91736783 12.20305461 5.91736783 12.20305461 7 15 C6.67 15.66 6.34 16.32 6 17 C3.67843403 17.40729228 1.3431213 17.74438677 -1 18 C-1 18.99 -1 19.98 -1 21 C0.65 21 2.3 21 4 21 C5.04059132 24.12177395 5.32284898 25.07083439 4 28 C1.4375 29.25 1.4375 29.25 -1 30 C-0.01 28.35 0.98 26.7 2 25 C-2.3103944 21.97429646 -2.3103944 21.97429646 -7.25 21.125 C-9.26615787 22.08785794 -9.26615787 22.08785794 -12 24 C-16.66085946 24.45105092 -18.89870976 24.6560878 -22.9375 22.25 C-25 20 -25 20 -26 16 C-16.1 16 -6.2 16 4 16 C2.53149107 5.84706389 2.53149107 5.84706389 0 0 Z " fill="#02070E" transform="translate(81,238)"/>
<path d="M0 0 C3.32878632 2.46040728 4.79301948 3.89610387 5.5625 8 C4.8491179 11.80470451 3.88381579 13.41196019 1 16 C-3.0801632 17.26114135 -5.05118362 17.44412682 -8.9375 15.625 C-11.5304076 12.32493578 -11.7285569 10.24608435 -11.484375 6.12890625 C-11 4 -11 4 -8.875 1.4375 C-5.46952264 -0.26523868 -3.75138748 -0.70338515 0 0 Z " fill="#4AA6E0" transform="translate(329,206)"/>
<path d="M0 0 C4.95 0 9.9 0 15 0 C15 13.53 15 27.06 15 41 C10.05 41 5.1 41 0 41 C0 27.47 0 13.94 0 0 Z M2 2 C2 14.54 2 27.08 2 40 C5.63 40 9.26 40 13 40 C13 27.46 13 14.92 13 2 C9.37 2 5.74 2 2 2 Z " fill="#4087B8" transform="translate(318,231)"/>
<path d="M0 0 C0.66 0.33 1.32 0.66 2 1 C2 1.99 2 2.98 2 4 C8.93 4.495 8.93 4.495 16 5 C16 5.66 16 6.32 16 7 C15.37351562 7.09796875 14.74703125 7.1959375 14.1015625 7.296875 C13.28429687 7.44640625 12.46703125 7.5959375 11.625 7.75 C10.81289063 7.88921875 10.00078125 8.0284375 9.1640625 8.171875 C6.8634438 8.81290644 6.8634438 8.81290644 5.75 10.875 C4.80562132 13.55073958 4.38268099 16.19367274 4 19 C3.34 19 2.68 19 2 19 C2 19.66 2 20.32 2 21 C-1.65316671 19.75023244 -2.78065836 19.32901247 -5 16 C-5.1171875 12.96875 -5.1171875 12.96875 -4.875 9.5 C-4.81054688 8.3553125 -4.74609375 7.210625 -4.6796875 6.03125 C-4 3 -4 3 -1.9453125 1.09375 C-1.30335937 0.7328125 -0.66140625 0.371875 0 0 Z " fill="#3CB2FB" transform="translate(48,243)"/>
<path d="M0 0 C4.28191056 3.40606522 7.43596826 7.73122268 9 13 C9 15.64 9 18.28 9 21 C-0.9 21 -10.8 21 -21 21 C-21 20.67 -21 20.34 -21 20 C-11.76 19.67 -2.52 19.34 7 19 C6.22028842 11.6051516 6.22028842 11.6051516 3 6 C3 5.34 3 4.68 3 4 C-0.29827466 2.7953124 -0.29827466 2.7953124 -4 2 C-5.33601064 2.66128495 -6.66920147 3.32828765 -8 4 C-10.32421875 4.046875 -10.32421875 4.046875 -12.6875 3.75 C-13.86892578 3.61851562 -13.86892578 3.61851562 -15.07421875 3.484375 C-16.02748047 3.24460938 -16.02748047 3.24460938 -17 3 C-17.33 2.34 -17.66 1.68 -18 1 C-21.8063457 1.67170806 -25.35206816 2.72746564 -29 4 C-21.54800018 -4.64431979 -9.71553528 -5.39027461 0 0 Z " fill="#3FB2F8" transform="translate(76,233)"/>
<path d="M0 0 C4.62 0 9.24 0 14 0 C14 13.53 14 27.06 14 41 C9.38 41 4.76 41 0 41 C0 39.68 0 38.36 0 37 C-0.66 37 -1.32 37 -2 37 C-2.433125 36.0409375 -2.433125 36.0409375 -2.875 35.0625 C-3.82823451 32.84793921 -3.82823451 32.84793921 -6 32 C-7.53668865 31.77532169 -9.07968054 31.59203195 -10.625 31.4375 C-11.44226563 31.35371094 -12.25953125 31.26992188 -13.1015625 31.18359375 C-14.04128906 31.09271484 -14.04128906 31.09271484 -15 31 C-15 30.01 -15 29.02 -15 28 C-14.67 28.33 -14.34 28.66 -14 29 C-8.12860795 29.61559099 -8.12860795 29.61559099 -3.0625 26.9375 C-0.67129009 23.5318374 -0.2420194 21.11432986 0 17 C0.33 17 0.66 17 1 17 C1.32206759 25.21272366 1.32206759 25.21272366 -0.125 28.75 C-1.29359 31.03983751 -1.29359 31.03983751 -0.125 33.5625 C0.431875 34.7690625 0.431875 34.7690625 1 36 C1 37.32 1 38.64 1 40 C5.95 39.505 5.95 39.505 11 39 C11.02505615 38.13310547 11.0501123 37.26621094 11.07592773 36.37304688 C11.17169454 33.12262176 11.27088544 29.87232329 11.37231445 26.62207031 C11.41533026 25.22172048 11.45702493 23.82132936 11.49731445 22.42089844 C11.91095908 8.101645 11.91095908 8.101645 13 1 C8.71 1 4.42 1 0 1 C0 0.67 0 0.34 0 0 Z " fill="#489AD1" transform="translate(216,231)"/>
<path d="M0 0 C0.33 0 0.66 0 1 0 C1.03996094 0.58007812 1.07992187 1.16015625 1.12109375 1.7578125 C1.62665204 5.54013747 2.09199584 8.13804068 4.92578125 10.828125 C7.23027745 12.36187373 9.5470945 13.71807954 12 15 C12.63550781 15.3403125 13.27101562 15.680625 13.92578125 16.03125 C15.26644101 16.72237771 16.63050764 17.3679266 18 18 C17.67 19.65 17.34 21.3 17 23 C11.36529617 23.5497272 8.61012242 21.95047835 4 19 C2.68 20.65 1.36 22.3 0 24 C0 21.36 0 18.72 0 16 C1.32 15.34 2.64 14.68 4 14 C3.34 13.54625 2.68 13.0925 2 12.625 C-1.0151012 8.66767967 -0.33045517 4.80995855 0 0 Z " fill="#030F20" transform="translate(144,240)"/>
<path d="M0 0 C1.953125 0.8359375 1.953125 0.8359375 4 2 C6.35564596 2.44811137 6.35564596 2.44811137 8.75 2.625 C9.54921875 2.69976562 10.3484375 2.77453125 11.171875 2.8515625 C11.77515625 2.90054688 12.3784375 2.94953125 13 3 C13 3.33 13 3.66 13 4 C12.34773438 4.10957031 11.69546875 4.21914062 11.0234375 4.33203125 C5.8802377 5.26508962 1.58100221 6.34784083 -3 9 C-3 7.68 -3 6.36 -3 5 C-7.62 5 -12.24 5 -17 5 C-17 18.53 -17 32.06 -17 46 C-17.33 46 -17.66 46 -18 46 C-18 31.81 -18 17.62 -18 3 C-14.57678771 1.28839385 -10.70972071 2.04454175 -6.9453125 2.16015625 C-4.03289961 2.20814438 -4.03289961 2.20814438 -1.8671875 0.87109375 C-1.25101563 0.58363281 -0.63484375 0.29617187 0 0 Z " fill="#010B1D" transform="translate(109,226)"/>
<path d="M0 0 C-0.33 13.86 -0.66 27.72 -1 42 C-1.33 42 -1.66 42 -2 42 C-2 28.47 -2 14.94 -2 1 C-6.95 1 -11.9 1 -17 1 C-17 14.53 -17 28.06 -17 42 C-17.33 42 -17.66 42 -18 42 C-18.02464574 36.03686834 -18.042834 30.07376605 -18.05493164 24.1105957 C-18.05997278 22.08031702 -18.06680557 20.05004198 -18.07543945 18.01977539 C-18.08751467 15.10822653 -18.09323034 12.1967255 -18.09765625 9.28515625 C-18.10281754 8.3716188 -18.10797882 7.45808136 -18.11329651 6.51686096 C-18.11349168 4.34424573 -18.06211805 2.17172704 -18 0 C-16.14342261 -1.85657739 -13.18956839 -1.47319603 -10.6875 -1.6875 C-9.53636719 -1.79449219 -8.38523437 -1.90148437 -7.19921875 -2.01171875 C-4 -2 -4 -2 0 0 Z " fill="#00091A" transform="translate(335,230)"/>
<path d="M0 0 C1.546875 0.99 1.546875 0.99 3.125 2 C6.5424072 3.94785279 9.0160492 4.64855013 13 4 C13.66 3.01 14.32 2.02 15 1 C14.67 2.65 14.34 4.3 14 6 C9.51709962 7.04253497 7.15845051 6.91063942 3 5 C2.01 5 1.02 5 0 5 C0 6.65 0 8.3 0 10 C0.66 10.33 1.32 10.66 2 11 C2 10.01 2 9.02 2 8 C2.99 8 3.98 8 5 8 C4.67 9.32 4.34 10.64 4 12 C9.61 12.33 15.22 12.66 21 13 C15.15126746 15.92436627 8.86329535 15.99307279 2.5078125 14.359375 C-0.07388165 13.39478598 -2.53603214 12.23198393 -5 11 C-4.46884894 6.48521602 -2.63379708 3.65333143 0 0 Z " fill="#4DA6E1" transform="translate(148,258)"/>
<path d="M0 0 C3.5072372 3.28096383 4.93261767 5.16328811 5.11352539 10.09448242 C5.10828857 11.33560791 5.10305176 12.5767334 5.09765625 13.85546875 C5.0962413 14.51710526 5.09482635 15.17874176 5.09336853 15.86042786 C5.08777996 17.96949828 5.07522965 20.07846177 5.0625 22.1875 C5.05748352 23.61913909 5.05292087 25.05077985 5.04882812 26.48242188 C5.038666 29.98835539 5.01908861 33.49405827 5 37 C0.38 37 -4.24 37 -9 37 C-9 28.75 -9 20.5 -9 12 C-8.67 12 -8.34 12 -8 12 C-8 19.92 -8 27.84 -8 36 C-3.05 35.505 -3.05 35.505 2 35 C2.05863894 30.85422725 2.09380984 26.70856295 2.125 22.5625 C2.14175781 21.39783203 2.15851563 20.23316406 2.17578125 19.03320312 C2.21345755 12.34566067 1.75480996 6.45963509 0 0 Z " fill="#4DA0D5" transform="translate(131,235)"/>
<path d="M0 0 C1.45742463 -0.08096803 2.91612807 -0.13917774 4.375 -0.1875 C5.18710937 -0.22230469 5.99921875 -0.25710937 6.8359375 -0.29296875 C7.55007813 -0.19628906 8.26421875 -0.09960938 9 0 C11.17975966 3.26963949 11.36904422 4.21729678 11 8 C10 10.3125 10 10.3125 9 12 C6.69 11.67 4.38 11.34 2 11 C2 10.34 2 9.68 2 9 C1.34 9 0.68 9 0 9 C0 8.34 0 7.68 0 7 C0.66 6.67 1.32 6.34 2 6 C2.33 5.01 2.66 4.02 3 3 C2.01 3 1.02 3 0 3 C0 2.01 0 1.02 0 0 Z " fill="#3DB2FA" transform="translate(321,209)"/>
<path d="M0 0 C0.66 0 1.32 0 2 0 C2.33 1.32 2.66 2.64 3 4 C3.99 4 4.98 4 6 4 C5.96744792 5.98567708 5.93489583 7.97135417 5.90234375 9.95703125 C5.91736783 12.20305461 5.91736783 12.20305461 7 15 C6 17 6 17 4.31738281 17.63256836 C1.45915162 18.08575398 -1.18612936 18.00649429 -4.078125 17.87890625 C-5.23828125 17.83056641 -6.3984375 17.78222656 -7.59375 17.73242188 C-8.8003125 17.67634766 -10.006875 17.62027344 -11.25 17.5625 C-12.47203125 17.51029297 -13.6940625 17.45808594 -14.953125 17.40429688 C-17.96901481 17.27470786 -20.98456646 17.13974424 -24 17 C-21.05139527 20.12269209 -19.60612942 21.49375709 -15.25 21.75 C-14.45078125 21.80671875 -13.6515625 21.8634375 -12.828125 21.921875 C-12.22484375 21.94765625 -11.6215625 21.9734375 -11 22 C-11.33 22.66 -11.66 23.32 -12 24 C-19.1826087 24.48695652 -19.1826087 24.48695652 -22.9375 22.25 C-25 20 -25 20 -26 16 C-16.1 16 -6.2 16 4 16 C2.53149107 5.84706389 2.53149107 5.84706389 0 0 Z " fill="#010F24" transform="translate(81,238)"/>
<path d="M0 0 C1.65 0.33 3.3 0.66 5 1 C7.42857143 9.42857143 7.42857143 9.42857143 6 14 C5.01 14.33 4.02 14.66 3 15 C1.79117904 17.00016466 1.79117904 17.00016466 1 19 C-3.8696631 19.39752352 -7.48693813 19.06310644 -11.609375 16.47265625 C-13.94347682 14.00086865 -14.08667292 11.4305816 -14.22265625 8.12890625 C-13.93291942 5.35861552 -13.03986852 3.87667904 -11 2 C-10.34 2.33 -9.68 2.66 -9 3 C-9.33 3.33 -9.66 3.66 -10 4 C-10.49212371 8.04993607 -10.91486731 11.75578046 -8.4375 15.125 C-4.90953451 16.39144915 -2.58621578 15.97805885 1 15 C3.562964 12.76774103 3.93752331 11.41948631 4.4375 8.0625 C3.90475283 4.33326978 2.54808744 2.70734291 0 0 Z " fill="#010C1C" transform="translate(329,206)"/>
<path d="M0 0 C4.12751449 0.60698743 7.3321148 2.03810791 11 4 C8.39315804 8.93927951 5.46531422 11.7974077 0.4375 14.25 C-5.89976545 15.6326761 -13.25637866 16.46266167 -19 13 C-17.74703125 12.95101563 -16.4940625 12.90203125 -15.203125 12.8515625 C-13.55206179 12.77651417 -11.90102119 12.70096723 -10.25 12.625 C-9.425 12.5940625 -8.6 12.563125 -7.75 12.53125 C-6.95078125 12.49257813 -6.1515625 12.45390625 -5.328125 12.4140625 C-4.22839355 12.36693115 -4.22839355 12.36693115 -3.10644531 12.31884766 C-0.68519718 11.95234904 0.94514126 11.33201878 3 10 C3.33 9.01 3.66 8.02 4 7 C3.34 7 2.68 7 2 7 C2 6.34 2 5.68 2 5 C2.99 5 3.98 5 5 5 C4.67 4.34 4.34 3.68 4 3 C1.47266765 2.34444881 1.47266765 2.34444881 -1 2 C-0.67 1.34 -0.34 0.68 0 0 Z " fill="#50A4DF" transform="translate(73,258)"/>
<path d="M0 0 C1.65 0 3.3 0 5 0 C8.94904106 7.87735225 8.33719484 15.92126192 8.1875 24.5 C8.1724286 26.00519497 8.15874453 27.51040451 8.14648438 29.015625 C8.11366687 32.67738941 8.06201989 36.33860021 8 40 C7.34 40 6.68 40 6 40 C5.99589111 39.03698975 5.99178223 38.07397949 5.98754883 37.08178711 C5.96564968 33.48245941 5.91125157 29.88420826 5.84741211 26.28540039 C5.82432529 24.73277159 5.80985835 23.17998826 5.80444336 21.62719727 C6.00892645 9.77779123 6.00892645 9.77779123 0 0 Z " fill="#011A34" transform="translate(303,232)"/>
<path d="M0 0 C2.875 1.8125 2.875 1.8125 5 4 C5 4.99 5 5.98 5 7 C0.05 7 -4.9 7 -10 7 C-9.67 5.35 -9.34 3.7 -9 2 C-5.48746854 -0.34168764 -4.13530644 -0.49623677 0 0 Z " fill="#02162C" transform="translate(66,239)"/>
<path d="M0 0 C0.70125 0.7425 1.4025 1.485 2.125 2.25 C9.1287121 8.94920288 14.39329116 10.33546699 23.8046875 10.30078125 C28.63580905 9.84601797 32.68362018 8.13909089 37 6 C37 6.66 37 7.32 37 8 C31.2550459 13.30303456 24.0677924 13.53182451 16.625 13.46875 C11.72780396 12.83549189 8.31050761 10.97022382 4.20703125 8.3125 C1.99821829 6.74443193 1.99821829 6.74443193 -1 7 C-0.67 4.69 -0.34 2.38 0 0 Z " fill="#021127" transform="translate(43,262)"/>
<path d="M0 0 C5.76982854 0.97445993 10.55505446 1.95914042 15 6 C19.29319874 12.4057251 20 15.97546735 20 24 C10.1 24 0.2 24 -10 24 C-10 23.67 -10 23.34 -10 23 C-0.76 22.67 8.48 22.34 18 22 C17.22028842 14.6051516 17.22028842 14.6051516 14 9 C14 8.34 14 7.68 14 7 C13.360625 6.7525 12.72125 6.505 12.0625 6.25 C8.00011649 4.59188428 4.00275094 2.7964416 0 1 C0 0.67 0 0.34 0 0 Z " fill="#4089B9" transform="translate(65,230)"/>
<path d="M0 0 C0.91058531 3.07322544 1.08886184 5.80097361 1 9 C1.99 9 2.98 9 4 9 C6.25 11.3125 6.25 11.3125 8 14 C7.67 14.99 7.34 15.98 7 17 C8.32 17 9.64 17 11 17 C11 17.66 11 18.32 11 19 C12.32 19.33 13.64 19.66 15 20 C14.67 20.66 14.34 21.32 14 22 C12.05886066 21.07005883 10.1222049 20.1307547 8.1875 19.1875 C7.10855469 18.66542969 6.02960938 18.14335937 4.91796875 17.60546875 C0.67522168 15.27110591 0.67522168 15.27110591 -1 13 C-1.58203125 10.87890625 -1.58203125 10.87890625 -1.8125 8.5625 C-1.90144531 7.80066406 -1.99039063 7.03882813 -2.08203125 6.25390625 C-1.98860268 3.68684495 -1.29378268 2.19293667 0 0 Z " fill="#48A3E0" transform="translate(147,236)"/>
<path d="M0 0 C3.375 0.9375 3.375 0.9375 5.375 3.9375 C5.60205078 6.7565918 5.60205078 6.7565918 5.5703125 10.13671875 C5.56064453 11.94946289 5.56064453 11.94946289 5.55078125 13.79882812 C5.53402344 15.06146484 5.51726562 16.32410156 5.5 17.625 C5.49097656 18.89923828 5.48195313 20.17347656 5.47265625 21.48632812 C5.44905641 24.63690627 5.41613194 27.78710983 5.375 30.9375 C5.045 30.9375 4.715 30.9375 4.375 30.9375 C4.36041748 30.16559326 4.34583496 29.39368652 4.33081055 28.59838867 C4.25641967 25.10674907 4.1597291 21.6160751 4.0625 18.125 C4.03994141 16.91005859 4.01738281 15.69511719 3.99414062 14.44335938 C3.95869141 13.27998047 3.92324219 12.11660156 3.88671875 10.91796875 C3.86053467 9.84442139 3.83435059 8.77087402 3.80737305 7.66479492 C3.58673028 4.92881541 3.58673028 4.92881541 2.01098633 3.07543945 C-0.24193779 1.50837793 -1.94727177 1.7203869 -4.625 1.9375 C-5.43429482 5.54620608 -5.80314083 8.98211938 -5.94140625 12.67578125 C-5.98330078 13.74248047 -6.02519531 14.80917969 -6.06835938 15.90820312 C-6.10767578 17.01099609 -6.14699219 18.11378906 -6.1875 19.25 C-6.23068359 20.37212891 -6.27386719 21.49425781 -6.31835938 22.65039062 C-6.42414787 25.41264569 -6.52623672 28.1749863 -6.625 30.9375 C-6.955 30.9375 -7.285 30.9375 -7.625 30.9375 C-7.74108127 26.52105402 -7.8122132 22.10499983 -7.875 17.6875 C-7.90851563 16.43324219 -7.94203125 15.17898438 -7.9765625 13.88671875 C-7.98945313 12.68144531 -8.00234375 11.47617188 -8.015625 10.234375 C-8.03657227 9.12416992 -8.05751953 8.01396484 -8.07910156 6.87011719 C-7.625 3.9375 -7.625 3.9375 -5.82714844 1.54003906 C-3.625 -0.0625 -3.625 -0.0625 0 0 Z " fill="#000C23" transform="translate(261.625,241.0625)"/>
<path d="M0 0 C3.06250346 0.97739472 4.0800223 1.39234444 5.9375 3.9375 C6.27807617 6.7565918 6.27807617 6.7565918 6.23046875 10.13671875 C6.22080078 11.34521484 6.21113281 12.55371094 6.20117188 13.79882812 C6.17603516 15.06146484 6.15089844 16.32410156 6.125 17.625 C6.11146484 18.89923828 6.09792969 20.17347656 6.08398438 21.48632812 C6.04858199 24.63714057 5.9991979 27.78711045 5.9375 30.9375 C5.6075 30.9375 5.2775 30.9375 4.9375 30.9375 C4.92291748 30.19588623 4.90833496 29.45427246 4.89331055 28.69018555 C4.81890543 25.33459369 4.72221994 21.98000506 4.625 18.625 C4.60244141 17.45775391 4.57988281 16.29050781 4.55664062 15.08789062 C4.5034668 13.41049805 4.5034668 13.41049805 4.44921875 11.69921875 C4.42303467 10.66756592 4.39685059 9.63591309 4.36987305 8.57299805 C4.13713764 5.91532331 4.13713764 5.91532331 2.56958008 4.06176758 C0.90439722 2.65687308 0.90439722 2.65687308 -1.6875 3.1875 C-3.9937407 3.71495645 -3.9937407 3.71495645 -5.0625 4.9375 C-5.22056531 6.86228813 -5.313635 8.7924921 -5.37890625 10.72265625 C-5.42080078 11.89248047 -5.46269531 13.06230469 -5.50585938 14.26757812 C-5.54517578 15.49927734 -5.58449219 16.73097656 -5.625 18 C-5.66818359 19.23556641 -5.71136719 20.47113281 -5.75585938 21.74414062 C-5.86234198 24.80847335 -5.96435424 27.87289073 -6.0625 30.9375 C-6.3925 30.9375 -6.7225 30.9375 -7.0625 30.9375 C-7.17858127 26.52105402 -7.2497132 22.10499983 -7.3125 17.6875 C-7.34601563 16.43324219 -7.37953125 15.17898438 -7.4140625 13.88671875 C-7.42695313 12.68144531 -7.43984375 11.47617188 -7.453125 10.234375 C-7.47407227 9.12416992 -7.49501953 8.01396484 -7.51660156 6.87011719 C-6.793132 2.19790405 -4.79216738 -0.09779933 0 0 Z " fill="#01112B" transform="translate(289.0625,241.0625)"/>
<path d="M0 0 C1.69921875 0.94921875 1.69921875 0.94921875 3.69921875 3.94921875 C2.62800781 3.47935547 2.62800781 3.47935547 1.53515625 3 C-4.1348575 0.89912714 -10.64692602 -0.16353084 -16.30078125 2.38671875 C-17.29078125 2.90234375 -18.28078125 3.41796875 -19.30078125 3.94921875 C-20.29078125 3.94921875 -21.28078125 3.94921875 -22.30078125 3.94921875 C-22.30078125 2.62921875 -22.30078125 1.30921875 -22.30078125 -0.05078125 C-26.59078125 -0.05078125 -30.88078125 -0.05078125 -35.30078125 -0.05078125 C-35.30078125 -0.38078125 -35.30078125 -0.71078125 -35.30078125 -1.05078125 C-30.68078125 -1.05078125 -26.06078125 -1.05078125 -21.30078125 -1.05078125 C-20.97078125 -0.06078125 -20.64078125 0.92921875 -20.30078125 1.94921875 C-19.70265625 1.47484375 -19.10453125 1.00046875 -18.48828125 0.51171875 C-12.59774626 -3.69580624 -6.34240576 -2.35503868 0 0 Z " fill="#4C94C7" transform="translate(275.30078125,232.05078125)"/>
<path d="M0 0 C0.55816406 0.45761719 1.11632812 0.91523438 1.69140625 1.38671875 C4.08419313 3.05883547 6.18236375 3.88280071 8.9375 4.8125 C13.93112131 6.77454323 16.33303472 8.28836133 19 13 C19.95969078 17.81574565 19.44512607 21.10974785 17.25 25.5 C15.05574452 27.93806165 14.21020798 28.77069943 11 29 C11 28.01 11 27.02 11 26 C12.32 26 13.64 26 15 26 C16.09506492 22.71480525 16.09960608 20.26336585 16.0625 16.8125 C16.05347656 15.72582031 16.04445312 14.63914062 16.03515625 13.51953125 C16.02355469 12.68808594 16.01195312 11.85664063 16 11 C15.34 11 14.68 11 14 11 C14 10.34 14 9.68 14 9 C13.175 8.7525 12.35 8.505 11.5 8.25 C7.47626529 6.81295189 3.78020976 4.97645485 0 3 C0 2.01 0 1.02 0 0 Z " fill="#52A5DB" transform="translate(158,242)"/>
<path d="M0 0 C1.9375 0.375 1.9375 0.375 4 1 C5.42267862 3.84535725 5.21971869 6.36218552 5.31640625 9.5390625 C5.35830078 10.84101563 5.40019531 12.14296875 5.44335938 13.484375 C5.48317299 14.86458045 5.52288522 16.24478883 5.5625 17.625 C5.60569407 19.01303415 5.64930865 20.40105528 5.69335938 21.7890625 C5.79972 25.19260256 5.90174714 28.59621778 6 32 C7.32 32.33 8.64 32.66 10 33 C9.505 31.515 9.505 31.515 9 30 C9.99 29.67 10.98 29.34 12 29 C11.505 31.475 11.505 31.475 11 34 C11.66 34.33 12.32 34.66 13 35 C11.35 34.67 9.7 34.34 8 34 C8 34.99 8 35.98 8 37 C6.68 37 5.36 37 4 37 C3.98541748 36.12786865 3.97083496 35.2557373 3.95581055 34.35717773 C3.89442628 31.09340004 3.82021612 27.83042043 3.73754883 24.56713867 C3.70448006 23.1600222 3.67639296 21.75277884 3.65356445 20.34545898 C3.61968201 18.31179176 3.56735782 16.27926865 3.51171875 14.24609375 C3.48553467 13.02591553 3.45935059 11.8057373 3.43237305 10.54858398 C2.93461963 6.46340841 1.77668062 3.68780157 0 0 Z " fill="#000E22" transform="translate(132,235)"/>
<path d="M0 0 C0.33 0.66 0.66 1.32 1 2 C4.465 1.505 4.465 1.505 8 1 C8 1.66 8 2.32 8 3 C7.34 3 6.68 3 6 3 C6.33 5.31 6.66 7.62 7 10 C5.68 10.33 4.36 10.66 3 11 C2.67 10.01 2.34 9.02 2 8 C0.68 8.33 -0.64 8.66 -2 9 C-2.25 3.375 -2.25 3.375 0 0 Z " fill="#3AB3F9" transform="translate(149,237)"/>
<path d="M0 0 C-2.5687595 1.43850532 -4.81120304 2.21998727 -7.6875 3 C-8.780625 3.33 -9.87375 3.66 -11 4 C-11.33 4.66 -11.66 5.32 -12 6 C-13.65 6 -15.3 6 -17 6 C-17.33 5.34 -17.66 4.68 -18 4 C-20.35599235 3.53248212 -20.35599235 3.53248212 -23.0625 3.375 C-23.98160156 3.30023438 -24.90070313 3.22546875 -25.84765625 3.1484375 C-26.55792969 3.09945312 -27.26820312 3.05046875 -28 3 C-28 3.99 -28 4.98 -28 6 C-27.34 6 -26.68 6 -26 6 C-26.14168137 7.43791516 -26.28851043 8.8753237 -26.4375 10.3125 C-26.51871094 11.11300781 -26.59992188 11.91351563 -26.68359375 12.73828125 C-27 15 -27 15 -28 18 C-28.33 18 -28.66 18 -29 18 C-29 12.72 -29 7.44 -29 2 C-24.71 2 -20.42 2 -16 2 C-15.67 2.66 -15.34 3.32 -15 4 C-14.01 3.34 -13.02 2.68 -12 2 C-7.8492018 -0.41068853 -4.72680045 -0.33170529 0 0 Z " fill="#4AADED" transform="translate(122,230)"/>
<path d="M0 0 C2.3125 0.4375 2.3125 0.4375 5 2 C6.36075884 4.90755893 7.21362959 7.89287788 8 11 C8.33 9.35 8.66 7.7 9 6 C10.41377341 8.63904371 11.37240135 11.07120629 12 14 C9.69 14.33 7.38 14.66 5 15 C4.67 16.32 4.34 17.64 4 19 C2.68 19.33 1.36 19.66 0 20 C0.495 19.195625 0.99 18.39125 1.5 17.5625 C3.337696 13.19797201 3.67010246 9.67353512 3 5 C1.66829691 2.02015833 1.66829691 2.02015833 0 0 Z " fill="#041932" transform="translate(173,250)"/>
<path d="M0 0 C0.7940625 0.06703125 1.588125 0.1340625 2.40625 0.203125 C4.5 0.75 4.5 0.75 6.5 3.75 C5.51 4.245 5.51 4.245 4.5 4.75 C3.9225 4.234375 3.345 3.71875 2.75 3.1875 C0.66268674 1.54242839 0.66268674 1.54242839 -1.5 1.875 C-4.93130707 3.37619684 -7.02575138 4.54857016 -8.4375 8.125 C-8.51713428 11.46963993 -7.28906761 12.9918541 -5.5 15.75 C-5.83 16.41 -6.16 17.07 -6.5 17.75 C-9.27688804 14.88633421 -10.42863748 13.24953767 -11 9.25 C-10.4231981 5.21238667 -9.35349783 3.60349783 -6.5 0.75 C-4.04048544 -0.47975728 -2.71743376 -0.26468511 0 0 Z " fill="#031A32" transform="translate(207.5,242.25)"/>
<path d="M0 0 C0 0.33 0 0.66 0 1 C-1.98 1 -3.96 1 -6 1 C-6.33 1.99 -6.66 2.98 -7 4 C-7.99 4.33 -8.98 4.66 -10 5 C-11.25838557 7.51677113 -11.20818973 9.41293288 -11.31640625 12.2265625 C-11.35830078 13.2578125 -11.40019531 14.2890625 -11.44335938 15.3515625 C-11.48267578 16.43179687 -11.52199219 17.51203125 -11.5625 18.625 C-11.60568359 19.71296875 -11.64886719 20.8009375 -11.69335938 21.921875 C-11.7996453 24.6144517 -11.90168057 27.30712253 -12 30 C-12.33 30 -12.66 30 -13 30 C-13.17449702 25.77135555 -13.28092495 21.54363749 -13.375 17.3125 C-13.42527344 16.11431641 -13.47554688 14.91613281 -13.52734375 13.68164062 C-13.67127094 5.0699968 -13.67127094 5.0699968 -11.77392578 2.0456543 C-7.86065282 -1.45048957 -4.88982185 -1.27135368 0 0 Z " fill="#01152D" transform="translate(119,242)"/>
<path d="M0 0 C-0.33 2.31 -0.66 4.62 -1 7 C-1.66 7 -2.32 7 -3 7 C-2.67 5.02 -2.34 3.04 -2 1 C-9.83243817 -1.7848669 -18.23456787 -2.35802471 -26 1 C-25.67 0.01 -25.34 -0.98 -25 -2 C-21.81354987 -3.06215004 -19.03069311 -3.39058435 -15.6875 -3.6875 C-14.57761719 -3.79449219 -13.46773437 -3.90148437 -12.32421875 -4.01171875 C-7.4003934 -3.99436096 -4.06818708 -2.71212472 0 0 Z " fill="#04162B" transform="translate(177,232)"/>
<path d="M0 0 C-0.721875 0.53625 -1.44375 1.0725 -2.1875 1.625 C-9.74228165 8.0045934 -12.043667 13.4467568 -12.8515625 22.98828125 C-12.90054688 23.65214844 -12.94953125 24.31601563 -13 25 C-13.33 25 -13.66 25 -14 25 C-15.14919973 18.33464156 -14.97509927 14.26651033 -11.375 8.3125 C-9.7444623 6.01863296 -9.7444623 6.01863296 -10 3 C-6.62637846 0.39749195 -4.23092172 -0.36265043 0 0 Z " fill="#021328" transform="translate(195,231)"/>
<path d="M0 0 C0.99 0.33 1.98 0.66 3 1 C5.6928496 1.17812624 8.29441368 1.08727698 11 1 C11.33 0.67 11.66 0.34 12 0 C14.33297433 -0.04092937 16.66705225 -0.04241723 19 0 C19.33 0.99 19.66 1.98 20 3 C19.01 3 18.02 3 17 3 C17 3.66 17 4.32 17 5 C17.66 5.33 18.32 5.66 19 6 C17.35 6 15.7 6 14 6 C13.67 4.68 13.34 3.36 13 2 C12.67 2.33 12.34 2.66 12 3 C10.14712498 3.07226502 8.29166122 3.0838122 6.4375 3.0625 C5.42558594 3.05347656 4.41367187 3.04445313 3.37109375 3.03515625 C2.58863281 3.02355469 1.80617187 3.01195312 1 3 C0.67 2.01 0.34 1.02 0 0 Z " fill="#46ABEB" transform="translate(58,260)"/>
<path d="M0 0 C0.99 0.33 1.98 0.66 3 1 C9.81574013 2.75332445 17.02040004 2.15246699 24 2 C19.72064122 5.93576063 15.77855148 5.41738618 10.21875 5.3046875 C6.1858806 4.9229353 3.51323229 3.96087384 0 2 C0 1.34 0 0.68 0 0 Z " fill="#03162F" transform="translate(145,270)"/>
<path d="M0 0 C0.66 0.33 1.32 0.66 2 1 C2 2.32 2 3.64 2 5 C2.99 5 3.98 5 5 5 C5 5.66 5 6.32 5 7 C3.824375 6.67 2.64875 6.34 1.4375 6 C-5.26987713 4.35568709 -9.92626848 4.46876075 -16 8 C-16.99 8.495 -16.99 8.495 -18 9 C-18 8.01 -18 7.02 -18 6 C-13.14277797 2.98064576 -8.97734593 2.56174415 -3.29296875 2.30859375 C-2.53628906 2.20675781 -1.77960938 2.10492188 -1 2 C-0.67 1.34 -0.34 0.68 0 0 Z " fill="#011026" transform="translate(272,226)"/>
<path d="M0 0 C0.66 0.33 1.32 0.66 2 1 C1.67386719 1.53753906 1.34773438 2.07507813 1.01171875 2.62890625 C-0.23455035 5.54969909 -0.23143644 7.77008241 -0.1875 10.9375 C-0.18105469 11.95714844 -0.17460938 12.97679687 -0.16796875 14.02734375 C-0.01221966 16.78374048 0.38162614 19.31378395 1 22 C0.34 22 -0.32 22 -1 22 C-3.52701252 16.31422184 -3.79234099 10.11721326 -3 4 C-1.48046875 1.6328125 -1.48046875 1.6328125 0 0 Z " fill="#051B35" transform="translate(42,240)"/>
<path d="M0 0 C0 0.66 0 1.32 0 2 C1.32 2.66 2.64 3.32 4 4 C3.67 5.32 3.34 6.64 3 8 C2.814375 7.360625 2.62875 6.72125 2.4375 6.0625 C1.07642422 3.65828055 1.07642422 3.65828055 -2.25 3 C-6.758007 3 -8.54320426 4.21770099 -12 7 C-12 6.34 -12 5.68 -12 5 C-12.66 4.67 -13.32 4.34 -14 4 C-12.66666667 3.33333333 -11.33333333 2.66666667 -10 2 C-9.071875 1.443125 -9.071875 1.443125 -8.125 0.875 C-5.34632958 -0.26915841 -2.97373305 -0.13516968 0 0 Z " fill="#4BA6DE" transform="translate(118,239)"/>
<path d="M0 0 C2 2 2 2 2.375 5.3125 C1.94452982 9.54545677 0.96639625 11.03360375 -2 14 C-5.21451269 15.60725635 -8.43612536 15.05748185 -12 15 C-12 14.67 -12 14.34 -12 14 C-10.9275 13.87625 -9.855 13.7525 -8.75 13.625 C-4.5568914 12.98589005 -4.5568914 12.98589005 -1 11 C-0.29626983 8.35212912 -0.29626983 8.35212912 -0.25 5.375 C-0.19328125 4.37210938 -0.1365625 3.36921875 -0.078125 2.3359375 C-0.05234375 1.56507813 -0.0265625 0.79421875 0 0 Z " fill="#041832" transform="translate(214,246)"/>
<path d="M0 0 C2.31 0.33 4.62 0.66 7 1 C7.33 1.99 7.66 2.98 8 4 C6.5625 6.1875 6.5625 6.1875 5 8 C5.33 6.35 5.66 4.7 6 3 C4.68 3 3.36 3 2 3 C1.67 4.32 1.34 5.64 1 7 C-0.0625 5.1875 -0.0625 5.1875 -1 3 C-0.67 2.01 -0.34 1.02 0 0 Z " fill="#50A9E3" transform="translate(168,231)"/>
<path d="M0 0 C2.37531394 -0.0543965 4.74935883 -0.09385864 7.125 -0.125 C7.79015625 -0.14175781 8.4553125 -0.15851563 9.140625 -0.17578125 C13.49516056 -0.21847278 16.95600114 0.40003783 21 2 C20.67 3.32 20.34 4.64 20 6 C19.113125 5.34 18.22625 4.68 17.3125 4 C11.966704 0.86321061 5.98862274 1.67580388 0 2 C0 1.34 0 0.68 0 0 Z " fill="#02122F" transform="translate(195,229)"/>
<path d="M0 0 C2.97 0 5.94 0 9 0 C8.67 1.32 8.34 2.64 8 4 C6.25 4.6875 6.25 4.6875 4 5 C1.75 3.6875 1.75 3.6875 0 2 C0 1.34 0 0.68 0 0 Z " fill="#020208" transform="translate(57,255)"/>
<path d="M0 0 C0.33 0.66 0.66 1.32 1 2 C0.2578125 3.84765625 0.2578125 3.84765625 -0.875 6.0625 C-3.09792516 10.78429965 -3.67061362 14.81216458 -4 20 C-4.33 20 -4.66 20 -5 20 C-5.61046468 11.86047097 -5.2922002 6.4262431 0 0 Z " fill="#529FD2" transform="translate(46,237)"/>
<path d="M0 0 C0 1.32 0 2.64 0 4 C-3.3 3.34 -6.6 2.68 -10 2 C-9.67 1.01 -9.34 0.02 -9 -1 C-3.375 -2.25 -3.375 -2.25 0 0 Z " fill="#3FB2FE" transform="translate(215,239)"/>
<path d="M0 0 C0.33 0 0.66 0 1 0 C1 7.59 1 15.18 1 23 C-0.32 22.67 -1.64 22.34 -3 22 C-2.67854004 21.42926758 -2.35708008 20.85853516 -2.02587891 20.27050781 C-0.95230161 17.89443242 -0.69680791 16.25885128 -0.5859375 13.671875 C-0.54726563 12.87265625 -0.50859375 12.0734375 -0.46875 11.25 C-0.4378125 10.425 -0.406875 9.6 -0.375 8.75 C-0.33632813 7.90953125 -0.29765625 7.0690625 -0.2578125 6.203125 C-0.16384164 4.13576618 -0.08084436 2.06791373 0 0 Z " fill="#49B0F1" transform="translate(307,248)"/>
<path d="M0 0 C0.66 0.33 1.32 0.66 2 1 C-1.27301919 3.96909598 -3.38065762 4.34354794 -7.75 4.1875 C-9.22726563 4.14689453 -9.22726563 4.14689453 -10.734375 4.10546875 C-11.85585937 4.05326172 -11.85585937 4.05326172 -13 4 C-13.33 3.34 -13.66 2.68 -14 2 C-13.24074219 1.93941406 -12.48148438 1.87882812 -11.69921875 1.81640625 C-10.70535156 1.73261719 -9.71148437 1.64882813 -8.6875 1.5625 C-7.70136719 1.48128906 -6.71523437 1.40007812 -5.69921875 1.31640625 C-2.90624401 1.08187441 -2.90624401 1.08187441 0 0 Z " fill="#021226" transform="translate(210,271)"/>
<path d="M0 0 C0.33 0 0.66 0 1 0 C1.37828947 4.53947368 1.37828947 4.53947368 -0.4375 6.75 C-2.82751378 10.19161985 -2.74569923 13.89611165 -3 18 C-3.33 18 -3.66 18 -4 18 C-4.53449652 10.75460274 -3.71607548 6.27087737 0 0 Z " fill="#4696C8" transform="translate(186,238)"/>
<path d="M0 0 C1.65 0 3.3 0 5 0 C5.33 0.99 5.66 1.98 6 3 C0.555 4.485 0.555 4.485 -5 6 C-4.67 5.01 -4.34 4.02 -4 3 C-3.01 3 -2.02 3 -1 3 C-0.67 2.01 -0.34 1.02 0 0 Z " fill="#040811" transform="translate(325,202)"/>
<path d="M0 0 C2.31 0 4.62 0 7 0 C8.04059132 3.12177395 8.32284898 4.07083439 7 7 C4.4375 8.25 4.4375 8.25 2 9 C2.99 7.35 3.98 5.7 5 4 C3.35 2.68 1.7 1.36 0 0 Z " fill="#030F23" transform="translate(78,259)"/>
<path d="M0 0 C2.6875 -0.3125 2.6875 -0.3125 6 0 C8.875 2.5 8.875 2.5 11 5 C10.01 5 9.02 5 8 5 C8 4.34 8 3.68 8 3 C2.91696314 2.88679144 2.91696314 2.88679144 -2 4 C-2.33 3.34 -2.66 2.68 -3 2 C-2.01 2 -1.02 2 0 2 C0 1.34 0 0.68 0 0 Z " fill="#48A7E0" transform="translate(257,239)"/>
<path d="M0 0 C0.66 0.33 1.32 0.66 2 1 C1.67 1.33 1.34 1.66 1 2 C0.92794489 3.68608966 0.91613932 5.37500659 0.9375 7.0625 C0.94652344 7.98160156 0.95554687 8.90070313 0.96484375 9.84765625 C0.97644531 10.55792969 0.98804688 11.26820313 1 12 C0.01 12 -0.98 12 -2 12 C-3.35384615 4.61538462 -3.35384615 4.61538462 -1.5625 1.5 C-1.046875 1.005 -0.53125 0.51 0 0 Z " fill="#07172B" transform="translate(318,208)"/>
<path d="M0 0 C-0.99 0 -1.98 0 -3 0 C-3 0.66 -3 1.32 -3 2 C-7 3.33333333 -11 4.66666667 -15 6 C-11.29673879 1.70421699 -5.8141716 -2.5582355 0 0 Z " fill="#4C9AD0" transform="translate(62,231)"/>
<path d="M0 0 C0.66 0 1.32 0 2 0 C2 1.32 2 2.64 2 4 C6.62 4 11.24 4 16 4 C16 4.33 16 4.66 16 5 C13.56183415 5.0809723 11.12635616 5.14046972 8.6875 5.1875 C7.65206055 5.22520508 7.65206055 5.22520508 6.59570312 5.26367188 C1.44325817 5.33834499 1.44325817 5.33834499 -0.98046875 3.48828125 C-1.48513672 2.75158203 -1.48513672 2.75158203 -2 2 C-1.34 1.34 -0.68 0.68 0 0 Z " fill="#021630" transform="translate(214,268)"/>
<path d="M0 0 C3.465 1.485 3.465 1.485 7 3 C6.34 4.65 5.68 6.3 5 8 C4.01 7.67 3.02 7.34 2 7 C2 5.35 2 3.7 2 2 C1.34 2 0.68 2 0 2 C0 1.34 0 0.68 0 0 Z " fill="#48AEF6" transform="translate(276,235)"/>
<path d="M0 0 C-2.61331914 1.41554787 -5.30718129 2.58131312 -8.0625 3.6875 C-8.73410156 3.95949219 -9.40570313 4.23148438 -10.09765625 4.51171875 C-12 5 -12 5 -15 4 C-9.60931587 0.40621058 -6.46326465 -0.45356243 0 0 Z " fill="#489CCD" transform="translate(122,230)"/>
<path d="M0 0 C0.99 0 1.98 0 3 0 C2.67 0.99 2.34 1.98 2 3 C1.92948886 5.73865287 1.90642235 8.45027588 1.9375 11.1875 C1.94201172 11.93708984 1.94652344 12.68667969 1.95117188 13.45898438 C1.96293646 15.30602383 1.98087135 17.15302213 2 19 C1.34 19 0.68 19 0 19 C0 12.73 0 6.46 0 0 Z " fill="#45B1F3" transform="translate(93,252)"/>
<path d="M0 0 C0.66 0 1.32 0 2 0 C1.67 1.65 1.34 3.3 1 5 C1.66 5.33 2.32 5.66 3 6 C1.35 5.67 -0.3 5.34 -2 5 C-2 5.99 -2 6.98 -2 8 C-2.99 8 -3.98 8 -5 8 C-4.67 6.35 -4.34 4.7 -4 3 C-2.02 3.495 -2.02 3.495 0 4 C-0.33 3.01 -0.66 2.02 -1 1 C-0.67 0.67 -0.34 0.34 0 0 Z " fill="#090E1A" transform="translate(142,264)"/>
<path d="M0 0 C0 0.66 0 1.32 0 2 C-0.54140625 1.83628906 -1.0828125 1.67257813 -1.640625 1.50390625 C-4.40222593 0.91409413 -6.92818139 0.90390692 -9.75 0.9375 C-10.73484375 0.94652344 -11.7196875 0.95554688 -12.734375 0.96484375 C-13.85585938 0.98224609 -13.85585938 0.98224609 -15 1 C-15 0.34 -15 -0.32 -15 -1 C-9.43842552 -1.91457003 -5.324335 -2.32086397 0 0 Z " fill="#021123" transform="translate(302,230)"/>
<path d="M0 0 C1.41377341 2.63904371 2.37240135 5.07120629 3 8 C1.35 8.33 -0.3 8.66 -2 9 C-2.33 7.35 -2.66 5.7 -3 4 C-2.01 4.495 -2.01 4.495 -1 5 C-0.67 3.35 -0.34 1.7 0 0 Z " fill="#031121" transform="translate(182,256)"/>
<path d="M0 0 C4.62 0 9.24 0 14 0 C14 0.99 14 1.98 14 3 C13.0409375 2.7525 13.0409375 2.7525 12.0625 2.5 C8.02413348 1.84067485 4.08192742 1.91996221 0 2 C0 1.34 0 0.68 0 0 Z " fill="#52A0D7" transform="translate(159,239)"/>
<path d="M0 0 C-0.928125 0.4021875 -0.928125 0.4021875 -1.875 0.8125 C-4.2995233 1.95556848 -4.2995233 1.95556848 -6 5 C-6.66 5 -7.32 5 -8 5 C-8.33 4.01 -8.66 3.02 -9 2 C-6.98558063 -2.02883874 -3.72407517 -0.90585612 0 0 Z " fill="#47ACEF" transform="translate(67,231)"/>
<path d="M0 0 C2.475 0.495 2.475 0.495 5 1 C6.28317892 4.84953676 6.06643637 7.94738135 6 12 C5.01 12.495 5.01 12.495 4 13 C4.0825 11.783125 4.165 10.56625 4.25 9.3125 C4.27471684 5.83360474 4.04111557 5.06167336 2 2 C1.34 1.34 0.68 0.68 0 0 Z " fill="#061830" transform="translate(329,206)"/>
<path d="M0 0 C2.475 0.99 2.475 0.99 5 2 C2.25 6.875 2.25 6.875 0 8 C0 5.36 0 2.72 0 0 Z " fill="#4FA1D6" transform="translate(79,260)"/>
<path d="M0 0 C2.31 0.33 4.62 0.66 7 1 C7 1.66 7 2.32 7 3 C8.32 3.33 9.64 3.66 11 4 C10.67 4.66 10.34 5.32 10 6 C6.7 4.35 3.4 2.7 0 1 C0 0.67 0 0.34 0 0 Z " fill="#4FA2DC" transform="translate(151,252)"/>
<path d="M0 0 C3.63 0.66 7.26 1.32 11 2 C10.34 2.66 9.68 3.32 9 4 C5.5 3.8125 5.5 3.8125 2 3 C1.34 2.01 0.68 1.02 0 0 Z " fill="#4F92C3" transform="translate(319,219)"/>
<path d="M0 0 C0.33 0.66 0.66 1.32 1 2 C2.32 2 3.64 2 5 2 C3.55802132 4.88395737 1.29355765 6.76525152 -1 9 C-1.09765625 2.84765625 -1.09765625 2.84765625 -1 1 C-0.67 0.67 -0.34 0.34 0 0 Z " fill="#030F1E" transform="translate(145,255)"/>
<path d="M0 0 C-5.75 5 -5.75 5 -8 5 C-8.33 4.01 -8.66 3.02 -9 2 C-8.01 2 -7.02 2 -6 2 C-6 1.34 -6 0.68 -6 0 C-3 -1 -3 -1 0 0 Z " fill="#01152B" transform="translate(287,232)"/>
<path d="M0 0 C1.68496298 0.96885372 3.35178756 1.96986723 5 3 C5 3.33 5 3.66 5 4 C2.36 4.33 -0.28 4.66 -3 5 C-2.01 3.35 -1.02 1.7 0 0 Z " fill="#4E99C9" transform="translate(148,258)"/>
<path d="M0 0 C0.7425 0.0825 1.485 0.165 2.25 0.25 C-0.75 2.25 -0.75 2.25 -3.75 2.25 C-4.08 3.9 -4.41 5.55 -4.75 7.25 C-5.41 6.26 -6.07 5.27 -6.75 4.25 C-3.42692308 0.31153846 -3.42692308 0.31153846 0 0 Z " fill="#092746" transform="translate(260.75,240.75)"/>
<path d="M0 0 C1.32 0 2.64 0 4 0 C4 0.66 4 1.32 4 2 C4.66 2.33 5.32 2.66 6 3 C5.01 3.99 4.02 4.98 3 6 C2.34 5.67 1.68 5.34 1 5 C0.375 2.4375 0.375 2.4375 0 0 Z " fill="#040710" transform="translate(41,234)"/>
<path d="M0 0 C1.66611905 -0.042721 3.33382885 -0.04063832 5 0 C6 1 6 1 6.0625 4.0625 C6.041875 5.031875 6.02125 6.00125 6 7 C1.125 2.25 1.125 2.25 0 0 Z " fill="#031628" transform="translate(303,232)"/>
</svg>
