<svg width="843" height="569" viewBox="0 0 843 569" fill="none" xmlns="http://www.w3.org/2000/svg">
<g clip-path="url(#clip0_25_80)">
<path d="M538.17 568.852V496.512C538.17 496.512 566.361 547.798 538.17 568.852Z" fill="#F1F1F1"/>
<path d="M539.911 568.84L486.622 519.918C486.622 519.918 543.467 533.834 539.911 568.84Z" fill="#F1F1F1"/>
<path d="M842.17 23.0788H0.358948V422.533H842.17V23.0788Z" fill="#E5E5E5"/>
<path d="M818.099 57.3327H24.4308V390.609H818.099V57.3327Z" fill="white"/>
<path d="M841.811 0H0V35.7626H841.811V0Z" fill="#FFB830"/>
<path d="M26.576 24.4436C30.2368 24.4436 33.2045 21.4759 33.2045 17.8151C33.2045 14.1543 30.2368 11.1866 26.576 11.1866C22.9152 11.1866 19.9476 14.1543 19.9476 17.8151C19.9476 21.4759 22.9152 24.4436 26.576 24.4436Z" fill="white"/>
<path d="M51.7356 24.4436C55.3964 24.4436 58.3641 21.4759 58.3641 17.8151C58.3641 14.1543 55.3964 11.1866 51.7356 11.1866C48.0748 11.1866 45.1071 14.1543 45.1071 17.8151C45.1071 21.4759 48.0748 24.4436 51.7356 24.4436Z" fill="white"/>
<path d="M76.8962 24.4436C80.557 24.4436 83.5247 21.4759 83.5247 17.8151C83.5247 14.1543 80.557 11.1866 76.8962 11.1866C73.2354 11.1866 70.2678 14.1543 70.2678 17.8151C70.2678 21.4759 73.2354 24.4436 76.8962 24.4436Z" fill="white"/>
<path d="M154.46 133.203C153.594 133.203 152.762 133.547 152.149 134.16C151.537 134.773 151.192 135.604 151.192 136.471C151.192 137.338 151.537 138.169 152.149 138.782C152.762 139.395 153.594 139.739 154.46 139.739H243.753C244.62 139.739 245.451 139.395 246.064 138.782C246.677 138.169 247.021 137.338 247.021 136.471C247.021 135.604 246.677 134.773 246.064 134.16C245.451 133.547 244.62 133.203 243.753 133.203H154.46Z" fill="#3F3D56"/>
<path d="M103.96 178.203C103.094 178.203 102.262 178.547 101.649 179.16C101.037 179.773 100.692 180.604 100.692 181.471C100.692 182.338 101.037 183.169 101.649 183.782C102.262 184.395 103.094 184.739 103.96 184.739H294.253C295.12 184.739 295.951 184.395 296.564 183.782C297.177 183.169 297.521 182.338 297.521 181.471C297.521 180.604 297.177 179.773 296.564 179.16C295.951 178.547 295.12 178.203 294.253 178.203H103.96Z" fill="#CCCCCC"/>
<path d="M103.96 204.203C103.094 204.203 102.262 204.547 101.649 205.16C101.037 205.773 100.692 206.604 100.692 207.471C100.692 208.338 101.037 209.169 101.649 209.782C102.262 210.395 103.094 210.739 103.96 210.739H294.253C295.12 210.739 295.951 210.395 296.564 209.782C297.177 209.169 297.521 208.338 297.521 207.471C297.521 206.604 297.177 205.773 296.564 205.16C295.951 204.547 295.12 204.203 294.253 204.203H103.96Z" fill="#CCCCCC"/>
<path d="M103.96 230.203C103.094 230.203 102.262 230.547 101.649 231.16C101.037 231.773 100.692 232.604 100.692 233.471C100.692 234.338 101.037 235.169 101.649 235.782C102.262 236.395 103.094 236.739 103.96 236.739H294.253C295.12 236.739 295.951 236.395 296.564 235.782C297.177 235.169 297.521 234.338 297.521 233.471C297.521 232.604 297.177 231.773 296.564 231.16C295.951 230.547 295.12 230.203 294.253 230.203H103.96Z" fill="#CCCCCC"/>
<path d="M103.96 256.203C103.094 256.203 102.262 256.547 101.649 257.16C101.037 257.773 100.692 258.604 100.692 259.471C100.692 260.338 101.037 261.169 101.649 261.782C102.262 262.395 103.094 262.739 103.96 262.739H294.253C295.12 262.739 295.951 262.395 296.564 261.782C297.177 261.169 297.521 260.338 297.521 259.471C297.521 258.604 297.177 257.773 296.564 257.16C295.951 256.547 295.12 256.203 294.253 256.203H103.96Z" fill="#CCCCCC"/>
<path d="M103.96 282.203C103.094 282.203 102.262 282.547 101.649 283.16C101.037 283.773 100.692 284.604 100.692 285.471C100.692 286.338 101.037 287.169 101.649 287.782C102.262 288.395 103.094 288.739 103.96 288.739H294.253C295.12 288.739 295.951 288.395 296.564 287.782C297.177 287.169 297.521 286.338 297.521 285.471C297.521 284.604 297.177 283.773 296.564 283.16C295.951 282.547 295.12 282.203 294.253 282.203H103.96Z" fill="#CCCCCC"/>
<path d="M103.96 308.203C103.094 308.203 102.262 308.547 101.649 309.16C101.037 309.773 100.692 310.604 100.692 311.471C100.692 312.338 101.037 313.169 101.649 313.782C102.262 314.395 103.094 314.739 103.96 314.739H294.253C295.12 314.739 295.951 314.395 296.564 313.782C297.177 313.169 297.521 312.338 297.521 311.471C297.521 310.604 297.177 309.773 296.564 309.16C295.951 308.547 295.12 308.203 294.253 308.203H103.96Z" fill="#CCCCCC"/>
<path d="M731.709 316.138H443.607C441.681 316.136 439.835 315.37 438.473 314.009C437.111 312.647 436.346 310.801 436.343 308.875V139.403C436.346 137.477 437.111 135.631 438.473 134.269C439.835 132.908 441.681 132.142 443.607 132.14H731.709C733.635 132.142 735.481 132.908 736.843 134.269C738.204 135.631 738.97 137.477 738.972 139.403V308.875C738.97 310.801 738.204 312.647 736.843 314.009C735.481 315.37 733.635 316.136 731.709 316.138Z" fill="#F1F1F1"/>
<path d="M769.61 354.9H481.507C479.581 354.898 477.735 354.132 476.373 352.77C475.012 351.409 474.246 349.563 474.244 347.637V178.165C474.246 176.239 475.012 174.393 476.373 173.031C477.735 171.67 479.581 170.904 481.507 170.902H769.61C771.535 170.904 773.381 171.67 774.743 173.031C776.105 174.393 776.87 176.239 776.873 178.165V347.637C776.87 349.563 776.105 351.409 774.743 352.77C773.381 354.132 771.535 354.898 769.61 354.9Z" fill="white"/>
<path d="M769.609 357.372H481.507C478.926 357.369 476.452 356.342 474.627 354.517C472.802 352.692 471.775 350.218 471.772 347.637V178.165C471.775 175.584 472.802 173.11 474.627 171.285C476.452 169.46 478.926 168.433 481.507 168.43H769.609C772.19 168.433 774.665 169.46 776.49 171.285C778.315 173.11 779.341 175.584 779.344 178.165V347.637C779.341 350.218 778.315 352.692 776.49 354.517C774.665 356.342 772.19 357.369 769.609 357.372ZM481.507 173.373C480.236 173.375 479.018 173.88 478.12 174.779C477.222 175.677 476.717 176.895 476.715 178.165V347.637C476.717 348.907 477.222 350.125 478.12 351.024C479.018 351.922 480.236 352.427 481.507 352.429H769.609C770.88 352.427 772.098 351.922 772.996 351.024C773.894 350.125 774.4 348.907 774.401 347.637V178.165C774.4 176.895 773.894 175.677 772.996 174.778C772.098 173.88 770.88 173.375 769.609 173.373H481.507Z" fill="#3F3D56"/>
<path d="M625.17 310.43C638.977 310.43 650.17 299.237 650.17 285.43C650.17 271.623 638.977 260.43 625.17 260.43C611.363 260.43 600.17 271.623 600.17 285.43C600.17 299.237 611.363 310.43 625.17 310.43Z" fill="#FF6583"/>
<path d="M673.398 261.379C671.926 259.818 670.157 258.567 668.195 257.699C666.233 256.832 664.117 256.365 661.972 256.327C659.827 256.288 657.696 256.679 655.704 257.476C653.712 258.273 651.9 259.46 650.373 260.968L569.293 342.048C558.907 352.482 548.065 336.523 541.137 330.087C524.477 313.61 506.482 344.506 495.283 353.354H755.833V350.037L673.398 261.379Z" fill="#FFB830"/>
<path d="M352.229 359.661L347.845 298.907L355.719 241.975L333.357 240.465L328.943 303.354L341.418 362.494C340.355 363.963 339.773 365.724 339.749 367.537C339.726 369.349 340.263 371.125 341.287 372.621C342.311 374.116 343.773 375.259 345.471 375.893C347.17 376.527 349.023 376.62 350.776 376.16C352.53 375.701 354.099 374.711 355.268 373.326C356.438 371.94 357.151 370.228 357.31 368.422C357.469 366.616 357.066 364.805 356.157 363.237C355.247 361.669 353.876 360.42 352.229 359.661Z" fill="#9F616A"/>
<path d="M330.504 248.648L335.755 225.922C336.76 221.57 339.392 217.767 343.111 215.293C346.829 212.819 351.354 211.861 355.756 212.615C360.158 213.369 364.106 215.778 366.79 219.348C369.473 222.919 370.69 227.38 370.19 231.819L367.298 257.498L330.504 248.648Z" fill="#CBCBCB"/>
<path d="M371.903 557.597H382.445L387.46 516.933L371.901 516.934L371.903 557.597Z" fill="#9F616A"/>
<path d="M369.213 554.155L389.975 554.154C393.484 554.155 396.85 555.549 399.331 558.03C401.813 560.511 403.207 563.876 403.207 567.385V567.815L369.214 567.817L369.213 554.155Z" fill="#2F2E41"/>
<path d="M424.424 557.252L434.559 554.349L428.184 513.876L413.226 518.161L424.424 557.252Z" fill="#9F616A"/>
<path d="M420.891 554.684L440.85 548.966C444.223 548 447.843 548.413 450.912 550.116C453.98 551.818 456.247 554.669 457.213 558.042L457.332 558.455L424.653 567.817L420.891 554.684Z" fill="#2F2E41"/>
<path d="M366.204 542.838L371.109 419.66L358.373 363.915C341.234 335.18 359.724 289.345 359.912 288.885L359.981 288.718L360.161 288.693L404.993 282.619L405.623 284.064C423.158 324.155 428.025 368.647 419.57 411.581L414.904 435.446L437.965 528.557L416.14 539.47L399.394 496.045L388.075 540.474L366.204 542.838Z" fill="#2F2E41"/>
<path d="M354.008 300.31L339.382 257.455C330.29 241.443 336.057 227.227 342.496 218.122C349.45 208.289 349.868 202.775 349.96 202.714L350.034 202.665L369.25 202.083L387.035 220.154C388.153 219.717 397.603 243.004 396.802 244.175L409.223 284.327L354.008 300.31Z" fill="#CBCBCB"/>
<path d="M472.434 307.722L424.254 270.453L387.1 226.604L371.055 242.254L414.956 287.501L467.332 317.665C467.717 319.437 468.64 321.046 469.975 322.273C471.309 323.5 472.99 324.284 474.788 324.519C476.585 324.754 478.412 324.428 480.017 323.586C481.622 322.743 482.928 321.425 483.755 319.812C484.583 318.2 484.892 316.37 484.641 314.575C484.389 312.78 483.589 311.106 482.35 309.783C481.111 308.459 479.494 307.551 477.719 307.182C475.944 306.813 474.098 307.002 472.434 307.722Z" fill="#9F616A"/>
<path d="M366.496 258.11L353.071 239.037C350.5 235.384 349.423 230.887 350.061 226.466C350.7 222.045 353.004 218.036 356.503 215.259C360.002 212.483 364.43 211.15 368.88 211.533C373.33 211.916 377.465 213.987 380.438 217.32L397.637 236.607L366.496 258.11Z" fill="#CBCBCB"/>
<path d="M357.382 196.828C369.985 196.828 380.201 186.612 380.201 174.009C380.201 161.407 369.985 151.19 357.382 151.19C344.78 151.19 334.563 161.407 334.563 174.009C334.563 186.612 344.78 196.828 357.382 196.828Z" fill="#9F616A"/>
<path d="M380.585 162.433H344.351V146.639C352.304 143.479 360.086 140.792 364.79 146.639C368.979 146.639 372.997 148.303 375.959 151.265C378.921 154.227 380.585 158.244 380.585 162.433Z" fill="#2F2E41"/>
<path d="M349.345 142.852C316.147 141.945 322.433 196.637 322.433 196.637C322.433 196.637 328.697 197.466 331.555 197.952L335.006 196.009L338.72 198.444C340.425 198.453 342.217 198.42 344.074 198.385L345.776 194.88L349.573 198.322C356.484 198.333 375.239 198.523 375.239 198.523C375.239 198.523 386.542 143.867 349.345 142.852Z" fill="#2F2E41"/>
<path d="M618.182 568.43H237.182C236.916 568.43 236.662 568.325 236.474 568.137C236.287 567.95 236.182 567.696 236.182 567.43C236.182 567.165 236.287 566.911 236.474 566.723C236.662 566.536 236.916 566.43 237.182 566.43H618.182C618.447 566.43 618.701 566.536 618.889 566.723C619.076 566.911 619.182 567.165 619.182 567.43C619.182 567.696 619.076 567.95 618.889 568.137C618.701 568.325 618.447 568.43 618.182 568.43Z" fill="#CBCBCB"/>
</g>
<defs>
<clipPath id="clip0_25_80">
<rect width="842.17" height="568.852" fill="white"/>
</clipPath>
</defs>
</svg>
